<?xml version="1.0" encoding="utf-8"?>
<!-- Generator: Adobe Illustrator 27.5.0, SVG Export Plug-In . SVG Version: 6.00 Build 0)  -->
<svg version="1.1" xmlns="http://www.w3.org/2000/svg" xmlns:xlink="http://www.w3.org/1999/xlink" x="0px" y="0px"
	 viewBox="0 0 500 500" style="enable-background:new 0 0 500 500;" xml:space="preserve">
<g id="BACKGROUND">
</g>
<g id="OBJECTS">
	<g>
		<g style="opacity:0.63;">
			<linearGradient id="SVGID_1_" gradientUnits="userSpaceOnUse" x1="329.2004" y1="444.4484" x2="146.3687" y2="145.9317">
				<stop  offset="0" style="stop-color:#4A97C3"/>
				<stop  offset="1" style="stop-color:#DFEAF5"/>
			</linearGradient>
			<path style="fill:url(#SVGID_1_);" d="M358.138,422.55c30.238-5.299,58.625-22.161,76.321-47.246
				c17.696-25.085,24.008-58.294,15.084-87.667c-8.763-28.845-32.138-52.833-60.746-62.34c-21.392-7.109-45.646-6.756-64.468-19.159
				c-23.551-15.52-31.429-45.932-48.209-68.602c-26.491-35.791-76.617-50.105-119.698-38.844
				c-43.081,11.26-78.259,45.277-96.451,85.919c-18.192,40.643-20.579,87.154-12.674,130.975
				c6.193,34.331,27.098,77.87,49.637,104.496L358.138,422.55z"/>
		</g>
		
			<linearGradient id="SVGID_00000106120595777895783830000000435058640570328200_" gradientUnits="userSpaceOnUse" x1="311.355" y1="524.0297" x2="200.1214" y2="342.4141">
			<stop  offset="0" style="stop-color:#4A97C3"/>
			<stop  offset="1" style="stop-color:#DFEAF5"/>
		</linearGradient>
		<path style="fill:url(#SVGID_00000106120595777895783830000000435058640570328200_);" d="M480.335,424.005
			c0,2.96-103.083,5.36-230.242,5.36s-230.242-2.4-230.242-5.36c0-2.96,103.083-5.36,230.242-5.36S480.335,421.045,480.335,424.005z
			"/>
		<g>
			<g>
				<path style="opacity:0.23;fill:#66A8CE;" d="M483.842,274.143c-0.473-0.638-1.212-1.014-1.929-1.357
					c-9.716-4.644-20.886-7.206-31.326-4.564c-10.44,2.642-19.736,11.411-20.654,22.141c-0.267,3.127,0.216,6.395,1.801,9.087
					c-1.872,1.48-3.707,3.005-5.511,4.567c0.377-1.088,0.711-2.193,1.002-3.304c1.089-4.154,1.685-8.651,0.186-12.674
					c-0.238-0.639-0.56-1.297-1.146-1.647c-0.463-0.276-1.024-0.319-1.562-0.346c-4.56-0.233-9.262,0.192-13.576,1.612
					c1.253-3.448,2.517-6.891,3.8-10.327c0.649-1.738,1.318-3.469,1.974-5.205c0.316,0.102,0.668,0.023,0.815-0.291
					c3.562,2.078,8.545,2.276,12.576,1.556c4.274-0.764,8.223-2.876,11.634-5.564c4.878-3.845,8.776-8.923,11.23-14.629
					c2.733-6.356,3.656-13.352,3.853-20.268c0.223-7.789-0.566-15.984-4.867-22.482c-0.683-1.032-1.522-2.064-2.701-2.442
					c-0.931-0.298-1.94-0.144-2.903,0.028c-13.05,2.332-26.059,7.788-34.602,17.925c-8.543,10.137-11.544,25.579-4.759,36.967
					c2.035,3.415,4.971,6.408,8.631,7.925c-2.197,5.811-4.363,11.634-6.477,17.475c-1.925,0.784-3.756,1.78-5.435,3.036
					c-5.848,4.378-9.38,12.294-7.156,19.253c0.614,1.921,1.677,3.751,3.227,5.02c-2.011,6.266-3.917,12.564-5.705,18.896
					c-1.311-14.965-5.195-29.694-11.441-43.358c0.431-0.035,0.878-0.45,0.717-0.999c-0.022-0.076-0.05-0.15-0.073-0.226
					c3.578-2.164,6.036-5.855,7.439-9.795c4.447-12.488-1.491-27.055-11.838-35.343c-10.347-8.287-24.167-11.117-37.421-10.874
					c-0.978,0.018-1.997,0.062-2.853,0.535c-1.083,0.599-1.706,1.774-2.176,2.919c-2.958,7.209-2.143,15.401-0.414,22.999
					c1.535,6.746,3.797,13.431,7.711,19.136c3.513,5.122,8.323,9.348,13.854,12.173c3.867,1.975,8.15,3.281,12.492,3.202
					c3.726-0.068,8.088-1.028,11.174-3.255c4.592,10.023,7.91,20.626,9.846,31.482c-2.531-4.82-5.728-9.27-9.48-13.201
					c0.353-1.331,0.32-2.772,0.032-4.129c-1.228-5.774-6.879-9.912-12.737-10.64c-5.858-0.728-11.759,1.424-16.729,4.609
					c-0.367,0.235-0.743,0.49-0.957,0.869c-0.271,0.48-0.233,1.071-0.144,1.615c0.56,3.424,2.781,6.34,5.21,8.818
					c2.156,2.2,4.574,4.207,7.39,5.457c2.528,1.122,5.337,1.603,8.094,1.384c1.927-0.153,3.857-0.658,5.484-1.701
					c1.535-0.984,3.103-2.556,3.639-4.312c0.158,0.064,0.311-0.039,0.375-0.19c4.348,4.719,7.901,10.159,10.435,16.09
					c0.045,0.105,0.105,0.187,0.175,0.254c0.486,3.507,0.829,7.032,1.031,10.567c0.001,0.024,0.013,0.039,0.016,0.061
					c-0.759,2.782-1.49,5.571-2.196,8.367c-0.018-0.036-0.041-0.071-0.076-0.102c-0.026-0.023-0.055-0.043-0.081-0.066
					c0.853-1.656,0.924-3.631,0.537-5.453c-1.228-5.774-6.879-9.912-12.737-10.64c-5.858-0.728-11.759,1.424-16.728,4.609
					c-0.367,0.235-0.743,0.49-0.957,0.869c-0.271,0.48-0.233,1.071-0.144,1.615c0.56,3.424,2.781,6.341,5.21,8.818
					c2.156,2.2,4.574,4.207,7.39,5.457c2.528,1.122,5.337,1.603,8.095,1.384c1.927-0.153,3.856-0.658,5.484-1.701
					c1.535-0.984,3.103-2.556,3.639-4.312c0.093,0.038,0.185,0.019,0.259-0.037c-0.541,2.151-1.064,4.306-1.571,6.466
					c-0.038,0.088-0.06,0.172-0.059,0.253c-0.278,1.188-0.567,2.374-0.834,3.565c-1.942,8.654-3.57,17.377-4.86,26.151H364.71
					c-2.039,0-3.52,1.938-2.985,3.905l7.974,29.333l1.329,4.89c0.366,1.347,1.589,2.282,2.985,2.282h25.856
					c1.406,0,2.635-0.948,2.992-2.308l8.983-34.223c0.424-1.616-0.515-3.185-1.99-3.693c-0.315-0.108-0.645-0.186-1.002-0.186
					H384.95c1.465-9.895,3.379-19.716,5.656-29.455c4.735-7.755,12.576-12.244,20.959-15.142c-0.245,2.854,1.111,6.041,2.76,8.357
					c1.75,2.458,4.25,4.311,6.951,5.655c3.865,1.922,8.213,2.862,12.526,2.708c4.805-0.172,9.474-1.671,13.877-3.602
					c4.959-2.174,9.872-5.105,12.677-9.737c0.445-0.736,0.844-1.569,0.731-2.422c-0.089-0.674-0.486-1.261-0.88-1.815
					c-5.342-7.505-12.635-14.055-21.54-16.41c-8.906-2.355-19.498,0.348-24.636,7.994c-1.529,2.276-2.533,4.985-2.416,7.714
					c-6.298,2.131-12.288,5.137-17.053,9.62c2.82-9.29,9.158-17.37,15.308-24.693c1.376-1.638,2.791-3.242,4.233-4.822
					c0.23-0.097,0.459-0.197,0.684-0.303c3.097-1.457,5.822-3.698,7.849-6.456c0.938-1.276,1.715-2.654,2.381-4.089
					c2.003-1.803,4.048-3.557,6.142-5.253c0.286-0.232,0.58-0.453,0.867-0.683c0.164,0.188,0.414,0.273,0.643,0.145
					c1.366,3.059,4.561,5.55,7.562,6.984c3.183,1.521,6.789,1.998,10.313,1.84c5.041-0.226,10.019-1.73,14.341-4.334
					c4.815-2.9,8.738-7.08,12.145-11.55c3.837-5.035,7.198-10.816,7.439-17.142C484.506,276.029,484.441,274.951,483.842,274.143z
					 M400.15,333.038c-3.374,5.005-6.232,10.374-7.631,16.283c-0.015,0.063-0.005,0.114-0.005,0.171
					c-0.338,0.381-0.664,0.775-0.985,1.176c1.429-5.864,2.969-11.701,4.628-17.503c1.567-5.476,3.234-10.921,4.967-16.345
					c0.064-0.016,0.121-0.053,0.167-0.111c1.654,1.559,4.304,2.285,6.557,2.4c1.149,0.059,2.296-0.063,3.419-0.315
					C407.259,323.307,403.509,328.055,400.15,333.038z"/>
				<g>
					<g>
						<g>
							<path style="fill:#E28444;" d="M434.434,242.662c-7.145,18.445-14.282,36.899-20.726,55.603
								c-6.386,18.536-12.104,37.328-16.399,56.466c-2.425,10.807-4.388,21.718-5.773,32.709c-0.117,0.931,1.322,1.205,1.44,0.268
								c2.457-19.491,6.748-38.706,12.148-57.583c5.403-18.886,11.899-37.438,18.77-55.834c3.87-10.361,7.862-20.675,11.857-30.988
								C436.09,242.429,434.774,241.782,434.434,242.662L434.434,242.662z"/>
						</g>
						<g>
							<path style="fill:#E28444;" d="M402.926,346.549c2.421-10.224,9.279-18.999,15.909-26.894
								c6.409-7.631,13.544-14.651,21.289-20.922c4.348-3.521,8.886-6.803,13.584-9.841c0.793-0.513-0.037-1.72-0.829-1.208
								c-8.564,5.538-16.581,11.902-23.922,18.982c-7.335,7.075-14.139,14.874-19.841,23.332
								c-3.374,5.005-6.232,10.374-7.631,16.283C401.268,347.199,402.709,347.465,402.926,346.549L402.926,346.549z"/>
						</g>
						<g>
							<path style="fill:#E28444;" d="M403.524,335.454c-0.963-16.881-5.206-33.56-12.434-48.847
								c-2.014-4.26-4.257-8.411-6.713-12.433c-0.492-0.806-1.698,0.026-1.208,0.829c8.713,14.27,14.644,30.22,17.366,46.717
								c0.757,4.588,1.263,9.215,1.528,13.858C402.117,336.52,403.577,336.397,403.524,335.454L403.524,335.454z"/>
						</g>
						<g>
							<path style="fill:#E28444;" d="M399.556,351.452c6.573-10.79,19.145-15.281,30.851-17.927
								c0.917-0.207,0.415-1.585-0.496-1.379c-12.143,2.745-24.878,7.512-31.673,18.665
								C397.747,351.617,399.069,352.251,399.556,351.452L399.556,351.452z"/>
						</g>
						<g>
							<path style="fill:#E28444;" d="M402.237,324.263c-4.292-10.044-11.391-18.784-20.382-24.994
								c-0.769-0.531-1.733,0.573-0.958,1.108c8.786,6.069,15.764,14.559,19.961,24.382
								C401.227,325.621,402.608,325.133,402.237,324.263L402.237,324.263z"/>
						</g>
						<g>
							<path style="fill:#F6A366;" d="M425.366,268.062c-3.941-1.425-7.077-4.576-9.221-8.176
								c-6.785-11.389-3.784-26.831,4.759-36.967c8.543-10.136,21.552-15.593,34.602-17.924c0.962-0.172,1.971-0.326,2.903-0.028
								c1.179,0.378,2.018,1.409,2.701,2.442c4.3,6.498,5.089,14.693,4.867,22.482c-0.198,6.916-1.12,13.912-3.853,20.268
								c-2.454,5.706-6.352,10.784-11.23,14.629c-3.41,2.688-7.359,4.8-11.634,5.563c-4.274,0.764-9.64,0.523-13.224-1.928"/>
						</g>
						<path style="fill:#E28444;" d="M452.493,240.391c-7.243,7.334-15.367,13.75-24.15,19.139
							c2.399-9.333,6.94-18.047,11.983-26.271c4.761-1.836,9.312-4.196,13.552-7.034c0.785-0.525-0.045-1.733-0.829-1.208
							c-3.59,2.403-7.406,4.428-11.385,6.099c1.815-2.887,3.679-5.741,5.56-8.586c0.514-0.777-0.59-1.743-1.109-0.958
							c-3.848,5.822-7.724,11.722-11.095,17.872c-0.197-0.9-0.248-1.827-0.257-2.772c-0.017-1.754,0.026-3.509,0.126-5.26
							c0.191-3.342,0.588-6.667,1.168-9.963c0.163-0.928-1.277-1.198-1.44-0.268c-0.616,3.503-1.021,7.037-1.202,10.589
							c-0.088,1.724-0.131,3.452-0.11,5.178c0.017,1.468,0.142,2.935,0.752,4.284c-2.242,4.256-4.219,8.638-5.755,13.204
							c-4.865-6.98-7.113-15.63-6.12-24.099c0.109-0.931-1.33-1.206-1.44-0.268c-1.079,9.203,1.414,18.645,6.95,26.085
							c0.015,0.02,0.034,0.027,0.05,0.045c-0.089,0.289-0.186,0.575-0.271,0.865c-1.076,3.665-1.813,7.419-2.156,11.224
							c-0.084,0.931,1.356,1.208,1.44,0.268c0.214-2.374,0.593-4.708,1.1-7.006c9.398-5.613,18.053-12.412,25.746-20.201
							C454.265,240.676,453.152,239.723,452.493,240.391z"/>
						<g>
							<path style="fill:#F6A366;" d="M392.412,286.923c3.59-2.162,6.055-5.862,7.461-9.809
								c4.447-12.488-1.491-27.055-11.838-35.343c-10.347-8.287-24.167-11.117-37.421-10.874c-0.978,0.018-1.997,0.062-2.853,0.535
								c-1.083,0.599-1.706,1.774-2.176,2.919c-2.958,7.209-2.143,15.401-0.414,22.999c1.535,6.746,3.797,13.431,7.711,19.136
								c3.514,5.122,8.323,9.348,13.854,12.173c3.867,1.975,8.15,3.281,12.492,3.202c4.341-0.08,9.559-1.356,12.599-4.456"/>
						</g>
						<path style="opacity:0.23;fill:#FFFFFF;" d="M360.434,265.038c8.528,5.79,17.742,10.508,27.403,14.092
							c-4.164-8.691-10.308-16.359-16.85-23.448c-5.026-0.878-9.949-2.31-14.659-4.272c-0.872-0.363-0.292-1.709,0.579-1.346
							c3.988,1.661,8.125,2.907,12.351,3.775c-2.34-2.48-4.723-4.919-7.119-7.344c-0.655-0.663,0.241-1.824,0.902-1.155
							c4.904,4.965,9.851,10.002,14.35,15.381c0.019-0.922-0.111-1.84-0.285-2.769c-0.324-1.724-0.706-3.438-1.144-5.136
							c-0.835-3.241-1.87-6.427-3.078-9.548c-0.34-0.879,1.02-1.423,1.361-0.542c1.284,3.317,2.367,6.705,3.233,10.155
							c0.42,1.674,0.798,3.361,1.113,5.058c0.268,1.443,0.43,2.907,0.093,4.348c3.025,3.74,5.814,7.655,8.206,11.837
							c3.419-7.791,3.947-16.713,1.331-24.828c-0.288-0.893,1.071-1.441,1.361-0.542c2.844,8.819,2.228,18.566-1.76,26.937
							c-0.011,0.022-0.028,0.033-0.04,0.053c0.143,0.266,0.293,0.528,0.433,0.796c1.766,3.387,3.217,6.926,4.292,10.592
							c0.263,0.897-1.096,1.448-1.361,0.542c-0.671-2.288-1.494-4.504-2.438-6.659c-10.309-3.684-20.118-8.676-29.174-14.825
							C358.75,265.662,359.657,264.511,360.434,265.038z"/>
						<g>
							<path style="fill:#F6A366;" d="M390.257,308.221c0.857-1.658,0.928-3.636,0.54-5.461c-1.228-5.774-6.879-9.912-12.737-10.64
								c-5.858-0.728-11.759,1.424-16.728,4.609c-0.367,0.235-0.743,0.49-0.957,0.869c-0.271,0.48-0.233,1.071-0.144,1.615
								c0.56,3.424,2.781,6.341,5.21,8.818c2.156,2.2,4.574,4.207,7.39,5.458c2.528,1.122,5.337,1.603,8.094,1.383
								c1.927-0.153,3.857-0.658,5.484-1.701c1.628-1.043,3.308-2.745,3.738-4.63"/>
						</g>
						<path style="opacity:0.23;fill:#FFFFFF;" d="M373.023,307.384c4.585,0.206,9.18-0.155,13.68-1.051
							c-3.607-2.324-7.727-3.798-11.862-4.96c-2.111,0.84-4.312,1.446-6.556,1.801c-0.415,0.066-0.51-0.58-0.094-0.645
							c1.9-0.301,3.759-0.793,5.565-1.451c-1.466-0.394-2.939-0.763-4.414-1.124c-0.403-0.099-0.334-0.748,0.072-0.648
							c3.019,0.738,6.07,1.494,9.031,2.484c-0.208-0.354-0.471-0.672-0.754-0.983c-0.525-0.578-1.07-1.139-1.632-1.681
							c-1.073-1.034-2.209-2.001-3.395-2.902c-0.334-0.254,0.055-0.778,0.39-0.523c1.261,0.958,2.462,1.99,3.596,3.096
							c0.55,0.537,1.087,1.088,1.602,1.659c0.438,0.485,0.841,1.002,1.05,1.627c2.02,0.712,3.991,1.546,5.874,2.574
							c-0.522-3.753-2.403-7.259-5.289-9.726c-0.317-0.271,0.07-0.796,0.39-0.523c3.136,2.681,5.177,6.521,5.619,10.626
							c0.001,0.011-0.003,0.019-0.003,0.03c0.116,0.068,0.234,0.132,0.35,0.201c1.46,0.872,2.836,1.876,4.099,3.015
							c0.309,0.279-0.078,0.805-0.39,0.523c-0.788-0.711-1.618-1.359-2.479-1.956c-4.769,1.009-9.654,1.405-14.523,1.186
							C372.53,308.013,372.605,307.365,373.023,307.384z"/>
						<g>
							<path style="fill:#F6A366;" d="M399.723,343.847c0.857-1.658,0.928-3.636,0.54-5.461c-1.228-5.774-6.879-9.912-12.737-10.64
								c-5.858-0.728-11.759,1.424-16.728,4.609c-0.367,0.235-0.743,0.49-0.957,0.869c-0.271,0.48-0.233,1.071-0.144,1.615
								c0.56,3.424,2.781,6.34,5.21,8.818c2.156,2.2,4.574,4.207,7.39,5.458c2.528,1.122,5.337,1.603,8.094,1.383
								c1.927-0.153,3.857-0.658,5.484-1.701c1.628-1.043,3.308-2.745,3.738-4.63"/>
						</g>
						<path style="fill:#E28444;" d="M382.489,343.01c4.585,0.206,9.18-0.155,13.68-1.05c-3.607-2.324-7.727-3.798-11.862-4.96
							c-2.111,0.84-4.312,1.445-6.556,1.801c-0.415,0.066-0.509-0.58-0.094-0.645c1.9-0.301,3.759-0.793,5.565-1.451
							c-1.466-0.394-2.939-0.763-4.414-1.124c-0.403-0.099-0.335-0.748,0.072-0.648c3.018,0.738,6.07,1.494,9.031,2.484
							c-0.208-0.354-0.471-0.672-0.754-0.983c-0.525-0.578-1.07-1.139-1.632-1.681c-1.073-1.034-2.209-2.001-3.395-2.902
							c-0.334-0.254,0.055-0.778,0.39-0.523c1.261,0.958,2.462,1.99,3.596,3.097c0.55,0.537,1.087,1.088,1.602,1.659
							c0.438,0.485,0.841,1.002,1.05,1.627c2.02,0.712,3.991,1.546,5.874,2.574c-0.522-3.753-2.403-7.259-5.289-9.726
							c-0.317-0.271,0.07-0.797,0.39-0.523c3.136,2.681,5.177,6.521,5.619,10.626c0.001,0.011-0.003,0.019-0.003,0.03
							c0.116,0.068,0.234,0.132,0.35,0.201c1.46,0.872,2.836,1.876,4.099,3.015c0.309,0.279-0.078,0.805-0.39,0.523
							c-0.788-0.711-1.618-1.359-2.479-1.956c-4.769,1.008-9.654,1.405-14.523,1.186
							C381.996,343.639,382.071,342.991,382.489,343.01z"/>
						<g>
							<path style="fill:#F6A366;" d="M441.112,297.088c-1.926-2.807-2.502-6.372-2.212-9.764
								c0.918-10.73,10.214-19.499,20.654-22.141c10.44-2.642,21.61-0.08,31.326,4.564c0.717,0.342,1.456,0.719,1.929,1.357
								c0.599,0.808,0.664,1.886,0.626,2.891c-0.241,6.326-3.602,12.107-7.439,17.142c-3.407,4.47-7.33,8.65-12.145,11.55
								c-4.322,2.603-9.301,4.108-14.341,4.334c-3.524,0.158-7.13-0.319-10.313-1.84s-6.61-4.222-7.813-7.538"/>
						</g>
						<path style="opacity:0.23;fill:#FFFFFF;" d="M472.122,291.679c-8.254,1.408-16.655,1.793-25.004,1.189
							c6.005-5.023,13.129-8.622,20.353-11.66c4.012,1.044,8.133,1.643,12.276,1.779c0.767,0.025,0.791-1.165,0.025-1.19
							c-3.507-0.115-6.985-0.587-10.402-1.369c2.565-1.045,5.148-2.046,7.736-3.032c0.707-0.27,0.436-1.43-0.278-1.158
							c-5.298,2.019-10.651,4.076-15.788,6.538c0.296-0.688,0.702-1.323,1.143-1.951c0.82-1.165,1.68-2.303,2.575-3.412
							c1.709-2.115,3.547-4.121,5.491-6.021c0.547-0.535-0.275-1.395-0.824-0.859c-2.066,2.02-4.007,4.16-5.81,6.418
							c-0.875,1.096-1.722,2.216-2.526,3.365c-0.684,0.977-1.297,2.004-1.533,3.183c-3.496,1.746-6.876,3.701-10.053,5.987
							c0.096-6.911,2.711-13.685,7.378-18.803c0.513-0.563-0.307-1.426-0.824-0.859c-5.072,5.562-7.9,12.974-7.771,20.506
							c0,0.02,0.01,0.034,0.012,0.053c-0.195,0.148-0.395,0.291-0.589,0.443c-2.446,1.909-4.711,4.037-6.74,6.385
							c-0.496,0.575,0.322,1.439,0.824,0.859c1.266-1.465,2.621-2.826,4.045-4.102c8.862,0.748,17.794,0.361,26.56-1.134
							C473.157,292.707,472.874,291.55,472.122,291.679z"/>
						<g>
							<path style="fill:#F6A366;" d="M409.641,313.112c-1.938-1.255-3.229-3.337-3.933-5.537
								c-2.225-6.958,1.308-14.874,7.155-19.253c5.848-4.378,13.51-5.688,20.806-5.316c0.538,0.027,1.099,0.07,1.562,0.346
								c0.586,0.349,0.908,1.008,1.146,1.647c1.5,4.023,0.903,8.521-0.186,12.674c-0.967,3.688-2.333,7.329-4.591,10.401
								c-2.027,2.758-4.752,4.999-7.849,6.456c-2.165,1.018-4.548,1.661-6.938,1.539c-2.39-0.122-5.24-0.919-6.859-2.681"/>
						</g>
						<path style="fill:#E28444;" d="M427.647,301.634c-4.801,3.035-9.961,5.468-15.346,7.269c2.449-4.712,5.971-8.824,9.702-12.611
							c2.784-0.393,5.521-1.093,8.15-2.089c0.487-0.184,0.192-0.936-0.295-0.752c-2.226,0.843-4.527,1.455-6.871,1.857
							c1.333-1.324,2.69-2.624,4.053-3.917c0.373-0.353-0.1-1.009-0.476-0.652c-2.79,2.646-5.605,5.331-8.18,8.214
							c0.006-0.508,0.094-1.012,0.207-1.52c0.209-0.943,0.451-1.881,0.722-2.808c0.518-1.77,1.145-3.506,1.867-5.203
							c0.203-0.478-0.536-0.802-0.74-0.323c-0.767,1.804-1.424,3.65-1.963,5.535c-0.262,0.915-0.5,1.837-0.704,2.766
							c-0.173,0.79-0.289,1.594-0.129,2.393c-1.733,2.005-3.34,4.112-4.733,6.372c-1.743-4.353-1.873-9.276-0.286-13.698
							c0.175-0.486-0.564-0.813-0.74-0.323c-1.725,4.806-1.561,10.185,0.485,14.868c0.005,0.013,0.015,0.019,0.021,0.03
							c-0.084,0.144-0.171,0.285-0.253,0.431c-1.034,1.833-1.897,3.757-2.554,5.757c-0.161,0.489,0.577,0.817,0.74,0.323
							c0.41-1.248,0.904-2.453,1.462-3.624c5.744-1.844,11.236-4.416,16.335-7.64C428.563,302.007,428.084,301.357,427.647,301.634z
							"/>
						<g>
							<path style="fill:#F6A366;" d="M420.601,335.236c-0.276-2.899,0.772-5.805,2.396-8.222
								c5.138-7.646,15.73-10.349,24.636-7.994c8.906,2.355,16.198,8.906,21.541,16.41c0.394,0.554,0.791,1.142,0.88,1.815
								c0.113,0.853-0.286,1.686-0.731,2.422c-2.804,4.632-7.718,7.562-12.677,9.737c-4.403,1.931-9.072,3.43-13.877,3.602
								c-4.313,0.154-8.661-0.786-12.526-2.708c-2.702-1.344-5.202-3.197-6.951-5.655c-1.75-2.458-3.193-5.9-2.718-8.88"/>
						</g>
						<path style="opacity:0.23;fill:#FFFFFF;" d="M446.043,344.055c-6.759-2.371-13.203-5.568-19.198-9.484
							c6.576-1.266,13.399-1.003,20.063-0.278c2.568,2.445,5.402,4.603,8.445,6.423c0.563,0.337,1.075-0.543,0.512-0.88
							c-2.576-1.541-4.982-3.337-7.214-5.34c2.352,0.282,4.7,0.605,7.045,0.941c0.641,0.092,0.92-0.888,0.273-0.981
							c-4.801-0.688-9.659-1.369-14.523-1.659c0.507-0.391,1.074-0.699,1.665-0.985c1.097-0.531,2.212-1.026,3.342-1.484
							c2.156-0.873,4.363-1.611,6.606-2.226c0.632-0.173,0.373-1.158-0.26-0.984c-2.384,0.653-4.724,1.449-7.009,2.391
							c-1.109,0.457-2.207,0.943-3.285,1.469c-0.917,0.447-1.802,0.962-2.468,1.745c-3.339-0.144-6.68-0.084-10.004,0.308
							c2.939-5.13,7.705-9.112,13.32-11.005c0.618-0.208,0.363-1.194-0.26-0.984c-6.102,2.056-11.292,6.428-14.321,12.116
							c-0.008,0.015-0.007,0.03-0.013,0.045c-0.208,0.03-0.416,0.054-0.624,0.087c-2.622,0.413-5.199,1.065-7.691,1.98
							c-0.61,0.224-0.356,1.21,0.26,0.984c1.555-0.571,3.133-1.027,4.728-1.39c6.319,4.236,13.161,7.652,20.339,10.17
							C446.39,345.253,446.658,344.271,446.043,344.055z"/>
					</g>
					<g>
						<path style="fill:#559CBF;" d="M418.821,381.068c-0.831,10.666-6.499,33.897-40.155,33.052l1.329,4.89
							c0.366,1.347,1.589,2.282,2.985,2.282h25.856c1.406,0,2.635-0.948,2.992-2.308l8.983-34.223
							C421.236,383.145,420.296,381.576,418.821,381.068z"/>
						<path style="fill:#66A8CE;" d="M418.821,381.068c-0.315-0.108-0.645-0.185-1.002-0.185h-44.142
							c-2.039,0-3.52,1.938-2.985,3.905l7.974,29.333C412.322,414.965,417.99,391.734,418.821,381.068z"/>
					</g>
				</g>
			</g>
			<g>
				<g>
					<g>
						<g>
							<path style="fill:#54CC85;" d="M82.329,111.849c8.741,17.744,17.494,35.489,26.9,52.893
								c9.322,17.248,19.284,34.176,30.465,50.292c6.314,9.101,13.017,17.93,20.169,26.389c0.606,0.717,1.782-0.157,1.172-0.879
								c-12.685-15.002-23.923-31.166-34.163-47.919c-10.245-16.76-19.504-34.1-28.394-51.61
								c-5.007-9.862-9.897-19.782-14.785-29.703C83.279,110.472,81.912,111.003,82.329,111.849L82.329,111.849z"/>
						</g>
						<g>
							<path style="fill:#54CC85;" d="M137.473,205.361c-5.887-8.702-7.704-19.69-9.028-29.915
								c-1.279-9.883-1.617-19.886-0.99-29.832c0.352-5.584,1.007-11.146,1.951-16.66c0.159-0.931-1.291-1.137-1.45-0.207
								c-1.72,10.052-2.462,20.261-2.219,30.457c0.242,10.188,1.378,20.476,3.745,30.398c1.4,5.871,3.418,11.61,6.82,16.639
								C136.829,207.021,138,206.14,137.473,205.361L137.473,205.361z"/>
						</g>
						<g>
							<path style="fill:#54CC85;" d="M129.711,197.411c-13.078-10.717-28.227-18.883-44.372-23.91
								c-4.5-1.401-9.072-2.56-13.695-3.474c-0.927-0.183-1.13,1.268-0.207,1.45c16.402,3.245,32.157,9.675,46.143,18.838
								c3.89,2.548,7.638,5.307,11.235,8.255C129.543,199.167,130.441,198.009,129.711,197.411L129.711,197.411z"/>
						</g>
						<g>
							<path style="fill:#54CC85;" d="M138.801,211.16c-3.493-12.141,1.711-24.436,7.686-34.843c0.468-0.815-0.886-1.378-1.35-0.568
								c-6.199,10.796-11.31,23.397-7.699,35.948C137.698,212.603,139.06,212.058,138.801,211.16L138.801,211.16z"/>
						</g>
						<g>
							<path style="fill:#54CC85;" d="M120.602,190.783c-10.299-3.64-21.537-4.33-32.194-1.915
								c-0.912,0.207-0.751,1.664,0.167,1.456c10.414-2.36,21.387-1.75,31.459,1.81
								C120.918,192.446,121.494,191.098,120.602,190.783L120.602,190.783z"/>
						</g>
					</g>
					<g>
						<path style="fill:#54CC85;" d="M94.889,135.717c-3.716,1.936-8.159,2.111-12.26,1.253
							c-12.976-2.714-22.311-15.376-23.99-28.526c-1.679-13.15,3.111-26.419,10.227-37.603c0.525-0.825,1.094-1.672,1.944-2.156
							c1.076-0.612,2.403-0.531,3.625-0.335c7.694,1.233,14.26,6.199,19.843,11.635c4.957,4.827,9.482,10.242,12.311,16.556
							c2.539,5.668,3.639,11.975,3.167,18.168c-0.33,4.33-1.448,8.666-3.779,12.329c-2.331,3.663-6.14,7.45-10.371,8.429"/>
					</g>
					<path style="fill:#36BF6D;" d="M92.881,97.018c0.496,10.296-0.281,20.619-2.258,30.731
						c-5.246-8.083-8.587-17.324-11.227-26.603c1.871-4.747,3.215-9.694,3.996-14.737c0.145-0.933-1.306-1.14-1.45-0.207
						c-0.661,4.269-1.754,8.449-3.217,12.508c-0.896-3.29-1.736-6.595-2.557-9.904c-0.224-0.904-1.682-0.745-1.456,0.167
						c1.681,6.773,3.4,13.62,5.646,20.264c-0.796-0.464-1.513-1.054-2.214-1.687c-1.302-1.175-2.566-2.395-3.787-3.653
						c-2.331-2.402-4.509-4.946-6.543-7.604c-0.573-0.748-1.746,0.129-1.172,0.879c2.161,2.825,4.488,5.515,6.981,8.052
						c1.21,1.232,2.452,2.433,3.737,3.586c1.092,0.981,2.257,1.882,3.662,2.346c1.615,4.531,3.502,8.952,5.824,13.174
						c-8.431-1.144-16.32-5.344-21.882-11.807c-0.612-0.711-1.788,0.163-1.172,0.879c6.044,7.024,14.682,11.579,23.905,12.54
						c0.025,0.003,0.043-0.007,0.067-0.006c0.152,0.261,0.297,0.526,0.453,0.785c1.969,3.273,4.234,6.356,6.802,9.184
						c0.629,0.692,1.807-0.18,1.172-0.879c-1.603-1.765-3.064-3.623-4.412-5.552c2.229-10.718,3.083-21.691,2.557-32.625
						C94.291,95.907,92.836,96.081,92.881,97.018z"/>
					<g>
						<path style="fill:#54CC85;" d="M86.466,172.74c0.838-4.106-0.216-8.425-2.171-12.132
							c-6.182-11.727-20.924-17.215-34.028-15.209c-13.104,2.007-24.542,10.264-33.334,20.185c-0.649,0.732-1.306,1.512-1.537,2.462
							c-0.292,1.203,0.151,2.456,0.676,3.578c3.304,7.057,9.886,12.002,16.649,15.872c6.005,3.436,12.457,6.296,19.305,7.277
							c6.148,0.881,12.514,0.201,18.338-1.958c4.071-1.509,7.932-3.778,10.812-7.028c2.88-3.25,5.472-7.954,5.248-12.291"/>
					</g>
					<path style="fill:#36BF6D;" d="M48.711,181.465c10.034-2.358,19.744-5.947,28.922-10.632
						c-9.215-2.818-19.019-3.485-28.666-3.468c-4.048,3.106-8.435,5.759-13.067,7.899c-0.857,0.396-1.455-0.941-0.599-1.337
						c3.922-1.811,7.639-4.013,11.139-6.537c-3.409,0.044-6.818,0.147-10.225,0.269c-0.931,0.033-1.18-1.412-0.24-1.445
						c6.975-0.249,14.03-0.481,21.035-0.152c-0.666-0.638-1.43-1.164-2.231-1.664c-1.488-0.928-3.008-1.807-4.555-2.635
						c-2.951-1.579-5.996-2.973-9.111-4.197c-0.877-0.344-0.357-1.714,0.522-1.369c3.311,1.3,6.537,2.796,9.663,4.494
						c1.517,0.824,3.014,1.688,4.477,2.605c1.244,0.78,2.431,1.652,3.264,2.875c4.8,0.305,9.571,0.902,14.268,1.972
						c-3.421-7.79-9.631-14.218-17.375-17.785c-0.852-0.392-0.336-1.764,0.522-1.369c8.417,3.876,15.174,10.926,18.637,19.528
						c0.009,0.023,0.005,0.043,0.012,0.066c0.293,0.075,0.587,0.141,0.879,0.22c3.688,0.992,7.276,2.32,10.702,4.011
						c0.838,0.414,0.324,1.786-0.522,1.369c-2.138-1.055-4.326-1.948-6.552-2.713c-9.69,5.094-20.003,8.936-30.66,11.44
						C48.031,183.127,47.797,181.68,48.711,181.465z"/>
					<g>
						<path style="fill:#54CC85;" d="M100.685,188.743c-0.64-1.753-2.048-3.144-3.654-4.094c-5.081-3.004-11.952-1.646-16.453,2.173
							c-4.501,3.819-6.911,9.619-7.931,15.433c-0.075,0.429-0.142,0.878-0.008,1.293c0.17,0.524,0.63,0.896,1.091,1.199
							c2.9,1.905,6.55,2.244,10.018,2.134c3.079-0.098,6.193-0.519,9.019-1.745c2.537-1.101,4.793-2.844,6.497-5.022
							c1.192-1.522,2.126-3.284,2.46-5.188c0.334-1.904,0.219-4.293-0.878-5.885"/>
					</g>
					<path style="fill:#36BF6D;" d="M88.403,200.862c3.255-3.236,6.1-6.863,8.487-10.781c-4.152,1.082-8.026,3.117-11.68,5.374
						c-0.811,2.122-1.855,4.152-3.112,6.045c-0.233,0.35-0.772-0.017-0.539-0.367c1.065-1.602,1.961-3.304,2.699-5.078
						c-1.283,0.812-2.551,1.647-3.815,2.488c-0.345,0.23-0.777-0.26-0.428-0.492c2.587-1.722,5.208-3.456,7.942-4.966
						c-0.401-0.087-0.814-0.108-1.235-0.11c-0.781-0.005-1.563,0.017-2.342,0.064c-1.488,0.09-2.968,0.272-4.435,0.535
						c-0.413,0.074-0.535-0.567-0.121-0.641c1.559-0.28,3.132-0.465,4.713-0.551c0.768-0.042,1.537-0.063,2.306-0.057
						c0.654,0.005,1.307,0.059,1.909,0.329c1.892-1.005,3.84-1.891,5.871-2.582c-3.115-2.156-6.97-3.145-10.739-2.69
						c-0.415,0.05-0.539-0.591-0.121-0.641c4.096-0.494,8.304,0.602,11.625,3.057c0.009,0.007,0.012,0.015,0.02,0.022
						c0.129-0.04,0.256-0.083,0.385-0.122c1.63-0.484,3.301-0.818,4.994-0.977c0.414-0.039,0.54,0.602,0.121,0.641
						c-1.057,0.099-2.095,0.271-3.118,0.5c-2.486,4.193-5.5,8.057-8.957,11.493C88.533,201.651,88.107,201.157,88.403,200.862z"/>
					<g>
						<path style="fill:#54CC85;" d="M133.316,205.889c-0.64-1.753-2.048-3.144-3.654-4.094c-5.081-3.004-11.952-1.646-16.453,2.173
							c-4.501,3.819-6.911,9.619-7.93,15.434c-0.075,0.429-0.142,0.878-0.008,1.292c0.17,0.524,0.63,0.896,1.091,1.199
							c2.9,1.905,6.55,2.245,10.018,2.134c3.079-0.098,6.193-0.519,9.019-1.745c2.537-1.101,4.793-2.844,6.497-5.022
							c1.192-1.523,2.126-3.284,2.46-5.188c0.334-1.904,0.219-4.293-0.878-5.885"/>
					</g>
					<path style="fill:#36BF6D;" d="M121.035,218.008c3.255-3.236,6.1-6.863,8.487-10.781c-4.152,1.082-8.026,3.117-11.68,5.374
						c-0.81,2.122-1.854,4.152-3.112,6.045c-0.233,0.35-0.772-0.017-0.539-0.367c1.064-1.602,1.961-3.304,2.699-5.078
						c-1.283,0.812-2.551,1.647-3.815,2.488c-0.345,0.23-0.777-0.26-0.428-0.492c2.587-1.722,5.208-3.456,7.942-4.966
						c-0.401-0.086-0.814-0.108-1.235-0.11c-0.781-0.005-1.563,0.017-2.342,0.064c-1.488,0.09-2.968,0.272-4.435,0.535
						c-0.413,0.074-0.535-0.567-0.121-0.641c1.559-0.28,3.132-0.465,4.713-0.551c0.768-0.042,1.537-0.063,2.306-0.057
						c0.654,0.006,1.307,0.059,1.909,0.329c1.891-1.005,3.84-1.891,5.871-2.582c-3.115-2.156-6.97-3.144-10.739-2.69
						c-0.415,0.05-0.539-0.59-0.121-0.641c4.096-0.494,8.304,0.603,11.625,3.057c0.009,0.007,0.012,0.015,0.02,0.022
						c0.128-0.04,0.255-0.083,0.385-0.122c1.63-0.484,3.301-0.818,4.994-0.976c0.414-0.039,0.54,0.602,0.121,0.641
						c-1.057,0.099-2.095,0.271-3.118,0.5c-2.486,4.193-5.5,8.057-8.957,11.493C121.164,218.797,120.738,218.303,121.035,218.008z"
						/>
					<g>
						<path style="fill:#54CC85;" d="M126.913,143.773c-3.37-0.483-6.384-2.472-8.685-4.981c-7.277-7.938-7.439-20.717-2.318-30.19
							c5.122-9.473,14.568-15.961,24.563-19.97c0.737-0.296,1.514-0.585,2.304-0.502c1,0.106,1.837,0.788,2.551,1.496
							c4.493,4.459,6.474,10.847,7.583,17.079c0.985,5.534,1.406,11.251,0.281,16.758c-1.01,4.944-3.272,9.626-6.517,13.49
							c-2.269,2.701-5.061,5.033-8.335,6.346s-7.581,2.008-10.837,0.649"/>
					</g>
					<path style="fill:#36BF6D;" d="M143.921,117.285c-4.55,7.029-9.953,13.474-16.049,19.21c0.368-7.82,2.541-15.501,5.194-22.874
						c3.484-2.246,6.714-4.875,9.618-7.832c0.538-0.547-0.322-1.371-0.859-0.824c-2.459,2.504-5.16,4.744-8.049,6.73
						c0.967-2.595,1.979-5.174,3.005-7.747c0.28-0.703-0.757-1.289-1.04-0.579c-2.1,5.266-4.209,10.599-5.874,16.047
						c-0.306-0.684-0.499-1.412-0.662-2.162c-0.303-1.392-0.559-2.796-0.768-4.205c-0.4-2.689-0.633-5.4-0.716-8.118
						c-0.023-0.765-1.213-0.742-1.19,0.025c0.088,2.888,0.349,5.766,0.792,8.621c0.215,1.386,0.466,2.767,0.767,4.137
						c0.256,1.165,0.598,2.311,1.306,3.283c-1.081,3.755-1.93,7.567-2.398,11.453c-5.022-4.749-8.238-11.258-8.847-18.158
						c-0.067-0.759-1.257-0.74-1.19,0.025c0.661,7.499,4.203,14.597,9.835,19.6c0.015,0.013,0.032,0.016,0.047,0.027
						c-0.023,0.244-0.053,0.488-0.073,0.733c-0.251,3.093-0.217,6.2,0.138,9.283c0.087,0.754,1.278,0.737,1.19-0.025
						c-0.222-1.924-0.306-3.842-0.281-5.754c6.549-6.017,12.31-12.854,17.143-20.319
						C145.378,117.219,144.335,116.644,143.921,117.285z"/>
					<g>
						<path style="fill:#54CC85;" d="M117.406,177.785c-2.236,0.577-4.643,0.118-6.738-0.853
							c-6.628-3.072-10.064-11.031-9.328-18.299c0.735-7.268,4.958-13.795,10.17-18.913c0.384-0.378,0.796-0.762,1.312-0.915
							c0.654-0.195,1.356,0.014,1.988,0.271c3.977,1.62,6.884,5.103,9.204,8.716c2.06,3.208,3.816,6.678,4.549,10.419
							c0.658,3.359,0.463,6.881-0.561,10.147c-0.716,2.283-1.856,4.472-3.563,6.148c-1.707,1.676-4.223,3.235-6.616,3.234"/>
					</g>
					<path style="fill:#36BF6D;" d="M121.144,156.761c-1.015,5.589-2.717,11.034-5.037,16.216
						c-1.81-4.992-2.454-10.369-2.716-15.678c1.595-2.315,2.932-4.804,3.979-7.414c0.194-0.483-0.559-0.775-0.753-0.292
						c-0.886,2.209-1.993,4.317-3.284,6.314c-0.072-1.878-0.111-3.756-0.14-5.635c-0.008-0.514-0.81-0.61-0.802-0.091
						c0.059,3.845,0.13,7.735,0.509,11.581c-0.37-0.348-0.681-0.754-0.979-1.181c-0.553-0.793-1.079-1.605-1.578-2.432
						c-0.952-1.579-1.805-3.216-2.566-4.896c-0.214-0.473-0.953-0.148-0.738,0.326c0.808,1.785,1.723,3.519,2.745,5.191
						c0.496,0.812,1.014,1.611,1.56,2.39c0.464,0.663,0.977,1.291,1.674,1.715c0.303,2.633,0.766,5.242,1.487,7.797
						c-4.384-1.663-8.096-4.9-10.277-9.061c-0.24-0.458-0.98-0.135-0.739,0.326c2.37,4.523,6.441,8.043,11.272,9.707
						c0.013,0.004,0.024,0.002,0.037,0.005c0.049,0.159,0.094,0.319,0.146,0.478c0.65,2.002,1.482,3.939,2.509,5.777
						c0.251,0.45,0.992,0.128,0.739-0.326c-0.641-1.147-1.194-2.326-1.678-3.529c2.531-5.476,4.354-11.26,5.433-17.195
						C122.039,156.34,121.237,156.252,121.144,156.761z"/>
					<g>
						<path style="fill:#54CC85;" d="M141.109,184.693c-2.32-1.759-3.75-4.498-4.43-7.329c-2.15-8.958,3.03-18.584,10.791-23.545
							c7.762-4.962,17.52-5.896,26.66-4.748c0.674,0.085,1.376,0.19,1.932,0.581c0.704,0.494,1.048,1.352,1.288,2.178
							c1.511,5.199,0.343,10.8-1.413,15.922c-1.559,4.548-3.616,9-6.742,12.652c-2.806,3.279-6.441,5.844-10.472,7.387
							c-2.818,1.079-5.874,1.665-8.868,1.289s-6.504-1.644-8.376-4.01"/>
					</g>
					<path style="fill:#36BF6D;" d="M164.822,171.934c-6.32,3.37-13.036,5.95-19.976,7.712c3.519-5.697,8.331-10.541,13.376-14.956
						c3.538-0.235,7.045-0.861,10.444-1.869c0.629-0.186,0.328-1.159-0.301-0.973c-2.878,0.853-5.829,1.408-8.813,1.696
						c1.8-1.541,3.627-3.05,5.462-4.549c0.501-0.41-0.032-1.278-0.538-0.865c-3.755,3.068-7.546,6.183-11.052,9.567
						c0.055-0.638,0.213-1.263,0.402-1.892c0.351-1.167,0.742-2.323,1.17-3.464c0.816-2.178,1.767-4.302,2.832-6.369
						c0.3-0.582-0.6-1.059-0.9-0.475c-1.132,2.197-2.131,4.458-2.984,6.778c-0.414,1.126-0.799,2.263-1.142,3.413
						c-0.292,0.977-0.512,1.977-0.386,2.998c-2.366,2.361-4.583,4.86-6.545,7.573c-1.787-5.636-1.492-11.84,0.915-17.254
						c0.265-0.595-0.634-1.075-0.9-0.475c-2.617,5.883-2.912,12.663-0.775,18.742c0.006,0.016,0.017,0.025,0.024,0.04
						c-0.119,0.173-0.242,0.343-0.358,0.518c-1.471,2.21-2.735,4.548-3.748,7.002c-0.248,0.6,0.65,1.081,0.9,0.475
						c0.632-1.531,1.365-3.001,2.177-4.421c7.395-1.784,14.541-4.508,21.254-8.087C165.939,172.489,165.397,171.627,164.822,171.934
						z"/>
				</g>
				
					<linearGradient id="SVGID_00000092454149987753019010000014748335889468836776_" gradientUnits="userSpaceOnUse" x1="268.5667" y1="165.4054" x2="-29.681" y2="285.1357">
					<stop  offset="0" style="stop-color:#4A97C3"/>
					<stop  offset="1" style="stop-color:#DFEAF5"/>
				</linearGradient>
				<path style="opacity:0.44;fill:url(#SVGID_00000092454149987753019010000014748335889468836776_);" d="M132.249,247.776
					c-7.562,0.988-15.171,1.527-22.791,1.723c-5.392-1.626-9.312-5.625-12.362-10.199c1.75-0.3,3.449-1.612,4.58-2.963
					c1.2-1.434,1.92-3.223,2.303-5.054c0.548-2.618,0.431-5.373-0.337-7.936c-0.855-2.855-2.485-5.42-4.332-7.759
					c-2.08-2.634-4.607-5.122-7.824-6.078c-0.511-0.152-1.073-0.261-1.567-0.059c-0.39,0.159-0.68,0.489-0.951,0.812
					c-3.665,4.379-6.452,9.778-6.47,15.488c-0.018,5.71,3.261,11.639,8.651,13.523c1.604,0.561,3.386,0.738,5.004,0.242
					c2.264,3.444,5.004,6.566,8.439,8.721c-6.013-0.237-11.851-2.773-17.205-5.315c-1.21-0.575-2.403-1.185-3.588-1.809
					c-0.086-0.111-0.165-0.229-0.255-0.337c-1.359-1.63-3.129-2.913-5.1-3.697c-0.908-0.361-1.852-0.611-2.813-0.786
					c-1.398-0.921-2.776-1.871-4.124-2.864c-0.183-0.135-0.357-0.284-0.539-0.42c0.082-0.127,0.091-0.287-0.019-0.401
					c1.621-1.298,2.615-3.604,3.005-5.629c0.414-2.147,0.135-4.384-0.511-6.473c-0.925-2.988-2.606-5.738-4.844-7.923
					c-2.493-2.434-5.614-4.132-8.828-5.476c-3.62-1.513-7.614-2.624-11.445-1.778c-0.609,0.134-1.245,0.342-1.636,0.828
					c-0.308,0.384-0.418,0.886-0.512,1.369c-1.264,6.554-1.052,13.654,2.167,19.502c3.219,5.848,9.933,10.05,16.512,8.921
					c1.918-0.329,3.803-1.131,5.169-2.504c1.183,0.893,2.39,1.754,3.612,2.592c-0.716-0.057-1.434-0.084-2.15-0.085
					c-2.661-0.003-5.452,0.343-7.63,1.873c-0.346,0.243-0.69,0.539-0.808,0.945c-0.093,0.321-0.031,0.664,0.037,0.991
					c0.574,2.771,1.565,5.525,3.092,7.89c-2.264-0.212-4.527-0.431-6.788-0.663c-1.144-0.117-2.287-0.247-3.431-0.369
					c0.012-0.206-0.09-0.404-0.302-0.443c0.689-2.462,0.027-5.481-1.036-7.786c-1.127-2.444-3.012-4.482-5.158-6.106
					c-3.069-2.324-6.725-3.867-10.531-4.445c-4.24-0.644-8.58-0.102-12.759,0.862c-4.706,1.086-9.497,2.842-12.721,6.438
					c-0.512,0.571-1,1.236-1.042,2.002c-0.033,0.605,0.217,1.186,0.471,1.736c3.441,7.461,8.75,14.409,16.167,17.946
					c7.417,3.537,17.148,2.919,22.915-2.932c1.73-1.756,3.066-3.986,3.402-6.42c3.834,0.409,7.669,0.797,11.508,1.15
					c0.771,1.03,1.644,1.977,2.658,2.786c3.541,2.822,8.842,3.701,12.667,1.278c1.052-0.667,1.956-1.599,2.476-2.723
					c4.099,0.227,8.202,0.385,12.306,0.466c-8.787,3.129-17.027,7.763-24.257,13.659c-0.082-0.259-0.408-0.471-0.717-0.285
					c-0.042,0.025-0.082,0.053-0.124,0.079c-1.858-1.807-4.457-2.704-7.039-2.928c-8.186-0.712-15.993,5.129-19.343,12.632
					c-3.351,7.503-2.884,16.234-0.664,24.145c0.164,0.583,0.35,1.188,0.768,1.627c0.529,0.556,1.331,0.745,2.091,0.848
					c4.786,0.646,9.572-1.125,13.858-3.352c3.806-1.977,7.461-4.38,10.27-7.62c2.522-2.909,4.303-6.455,5.132-10.214
					c0.579-2.628,0.692-5.402-0.035-7.993c-0.622-2.217-1.875-4.674-3.685-6.177c5.286-4.318,11.111-7.97,17.312-10.828
					c-2.487,2.268-4.649,4.875-6.415,7.733c-0.856-0.005-1.717,0.24-2.487,0.627c-3.271,1.64-4.868,5.677-4.387,9.304
					c0.48,3.627,2.695,6.829,5.383,9.311c0.198,0.183,0.41,0.369,0.671,0.438c0.33,0.087,0.679-0.028,0.991-0.166
					c1.966-0.872,3.367-2.66,4.473-4.505c0.982-1.638,1.807-3.402,2.116-5.286c0.278-1.691,0.126-3.452-0.437-5.071
					c-0.394-1.132-0.998-2.21-1.879-3.023c-0.834-0.77-2.029-1.467-3.171-1.508c0.01-0.101-0.058-0.169-0.156-0.185
					c2.15-3.348,4.852-6.337,8.014-8.787c0.038-0.029,0.059-0.064,0.084-0.098c2.043-0.849,4.111-1.639,6.216-2.319
					c0.014-0.005,0.021-0.014,0.034-0.019c1.795,0.02,3.59,0.022,5.386,0.007c-0.026,0.018-0.056,0.028-0.074,0.062
					c-0.01,0.019-0.017,0.04-0.027,0.059c-1.127-0.252-2.322,0.014-3.354,0.532c-3.271,1.64-4.868,5.677-4.387,9.304
					c0.48,3.627,2.695,6.829,5.383,9.311c0.198,0.183,0.41,0.369,0.671,0.438c0.33,0.087,0.679-0.028,0.991-0.166
					c1.966-0.872,3.367-2.66,4.473-4.505c0.982-1.638,1.807-3.402,2.116-5.286c0.277-1.692,0.126-3.452-0.437-5.071
					c-0.394-1.132-0.998-2.21-1.879-3.023c-0.834-0.77-2.029-1.467-3.171-1.508c0.006-0.064-0.016-0.114-0.065-0.149
					c1.38-0.012,2.76-0.036,4.141-0.07c0.059,0.009,0.113,0.009,0.161-0.004c0.756-0.019,1.512-0.031,2.269-0.058
					c6.861-0.237,13.712-0.768,20.52-1.658C132.89,248.607,132.829,247.7,132.249,247.776z M95.813,249.505
					c-3.53-0.082-7.058-0.23-10.584-0.42c-0.019-0.034-0.059-0.048-0.098-0.066c0.685-1.237,0.707-2.949,0.422-4.325
					c-0.145-0.7-0.4-1.368-0.728-2.003c3.335,1.698,6.771,3.204,10.287,4.439c3.53,1.24,7.197,2.114,10.96,2.028
					c0.04-0.001,0.069-0.015,0.103-0.024c0.282,0.143,0.569,0.277,0.86,0.407C103.294,249.601,99.552,249.592,95.813,249.505z"/>
			</g>
			<g>
				<path style="fill:#54CC85;" d="M336.008,90.333c0.817,0.493,1.549,1.161,2.219,1.849c-2.692,2.999-5.384,5.997-8.077,8.996
					c-0.368,0.41-0.736,0.82-1.105,1.23c-0.79-0.624-1.544-1.323-2.133-2.118c-0.267-0.36-0.775,0.119-0.51,0.476
					c0.674,0.91,1.578,1.686,2.463,2.38c0.976,0.766,2.038,1.415,3.145,1.977c0.067,0.158,0.236,0.268,0.4,0.218
					c1.253,0.601,2.57,1.072,3.915,1.407c1.852,0.461,3.764,0.676,5.672,0.668c0.652-0.003,1.301-0.042,1.95-0.084
					c0.019,0.543,0.041,1.086,0.091,1.628c0.091,0.988,0.227,1.972,0.424,2.945c0.07,0.347,0.174,0.686,0.259,1.03
					c0.003,0.048,0.015,0.095,0.035,0.138c0.424,1.663,1.021,3.28,1.831,4.79c0.004,0.01,0.009,0.02,0.014,0.03
					c0.415,0.771,0.868,1.522,1.392,2.228c0.784,1.055,1.73,2.154,2.854,2.868c0.38,0.241,0.752-0.349,0.372-0.59
					c-0.562-0.357-1.077-0.841-1.557-1.362c2.667-3.009,5.335-6.017,8.002-9.026c0.332-0.374,0.664-0.748,0.995-1.123
					c0.617,0.457,1.199,0.966,1.656,1.554c0.276,0.355,0.784-0.124,0.51-0.476c-0.653-0.84-1.568-1.529-2.44-2.12
					c-0.906-0.615-1.883-1.107-2.888-1.537c-0.064-0.064-0.146-0.103-0.233-0.102c-1.483-0.613-3.036-1.06-4.616-1.323
					c-0.087-0.015-0.174-0.022-0.261-0.035c-0.061-0.033-0.129-0.04-0.197-0.026c-1.843-0.271-3.712-0.336-5.572-0.226
					c-0.007-0.167-0.017-0.333-0.023-0.501c-0.074-1.986-0.365-3.968-0.924-5.876c-0.491-1.676-1.21-3.277-2.1-4.777
					c-0.02-0.064-0.054-0.122-0.102-0.167c-0.578-0.954-1.21-1.876-1.945-2.72c-0.906-1.04-1.955-2.092-3.146-2.81
					C335.995,89.511,335.623,90.101,336.008,90.333z M329.987,103.114c-0.129-0.091-0.257-0.191-0.386-0.285
					c2.709-3.017,5.417-6.034,8.126-9.051c0.324-0.361,0.648-0.722,0.973-1.083c0.792,0.865,1.492,1.809,2.108,2.807
					c-2.545,2.693-5.089,5.387-7.634,8.08c-0.287,0.303-0.573,0.606-0.859,0.91C331.511,104.082,330.726,103.635,329.987,103.114z
					 M342.792,99.729c0.004,0.011,0.006,0.022,0.01,0.033c-1.663,1.864-3.326,3.728-4.989,5.592c-0.241,0.27-0.482,0.54-0.723,0.811
					c-0.004,0.005-0.005,0.01-0.009,0.015c-1.414-0.312-2.788-0.773-4.102-1.38c2.473-2.618,4.946-5.236,7.42-7.854
					c0.261-0.276,0.522-0.553,0.783-0.829C341.835,97.266,342.381,98.476,342.792,99.729z M345.452,113.007
					c1.465-1.621,2.931-3.242,4.397-4.862c0.177-0.196,0.353-0.391,0.53-0.586c1.468,0.234,2.909,0.617,4.291,1.159
					c-2.327,2.544-4.654,5.088-6.981,7.632c-0.234,0.256-0.468,0.512-0.702,0.767C346.329,115.806,345.82,114.424,345.452,113.007z
					 M357.253,109.95c0.279,0.167,0.561,0.343,0.84,0.53c-2.652,2.991-5.304,5.983-7.956,8.974
					c-0.313,0.353-0.625,0.705-0.938,1.058c-0.094-0.111-0.19-0.221-0.28-0.333c-0.608-0.75-1.118-1.568-1.585-2.41
					c2.383-2.606,4.767-5.212,7.15-7.817c0.294-0.321,0.587-0.642,0.881-0.963C356.01,109.273,356.645,109.586,357.253,109.95z
					 M345.319,107.255c1.068-0.038,2.139-0.019,3.204,0.066c0.34,0.027,0.677,0.089,1.016,0.13
					c-1.358,1.502-2.717,3.004-4.075,4.506c-0.073,0.08-0.145,0.161-0.218,0.241c-0.357-1.625-0.51-3.256-0.594-4.906
					C344.874,107.28,345.096,107.263,345.319,107.255z M343.917,106.628c-1.883,0.1-3.744,0.11-5.621-0.186
					c-0.147-0.023-0.291-0.067-0.437-0.094c1.617-1.813,3.234-3.625,4.851-5.438c0.107-0.12,0.214-0.24,0.321-0.36
					c0.46,1.616,0.744,3.282,0.843,4.959C343.895,105.882,343.905,106.255,343.917,106.628z"/>
				
					<linearGradient id="SVGID_00000139289528124160328190000012284874823544407186_" gradientUnits="userSpaceOnUse" x1="369.6964" y1="135.4602" x2="391.5724" y2="135.4602" gradientTransform="matrix(0.8587 0.5125 -0.5125 0.8587 123.183 -175.7272)">
					<stop  offset="0" style="stop-color:#4A97C3"/>
					<stop  offset="1" style="stop-color:#DFEAF5"/>
				</linearGradient>
				<path style="opacity:0.63;fill:url(#SVGID_00000139289528124160328190000012284874823544407186_);" d="M389.837,140.565
					c-0.947-0.565-1.894-1.13-2.841-1.695c0.778-3.42,1.555-6.841,2.333-10.261c0.111-0.486-0.485-0.896-0.867-0.517
					c-4.049,4.02-8.103,8.027-12.214,11.984c-0.673,0.648-1.346,1.296-2.02,1.944c0.534-3.147,1.067-6.294,1.601-9.441
					c0.039-0.231-0.024-0.462-0.236-0.589c-1.214-0.724-2.428-1.449-3.642-2.173c-0.578-0.345-1.116,0.553-0.536,0.899
					c1.112,0.664,2.224,1.327,3.336,1.991c-0.602,3.55-1.204,7.1-1.806,10.65c-0.082,0.482,0.467,0.902,0.866,0.517
					c4.092-3.939,8.174-7.88,12.205-11.881c0.633-0.628,1.265-1.256,1.898-1.884c-0.673,2.959-1.345,5.917-2.018,8.876
					c-0.051,0.226,0.032,0.467,0.236,0.589c1.055,0.63,2.111,1.26,3.167,1.89C389.879,141.809,390.416,140.911,389.837,140.565z"/>
				<g>
					
						<linearGradient id="SVGID_00000141418217467801349110000003308337235250469768_" gradientUnits="userSpaceOnUse" x1="366.3742" y1="146.3309" x2="350.525" y2="157.646" gradientTransform="matrix(-0.4456 -0.8952 0.8952 -0.4456 435.7404 549.6962)">
						<stop  offset="0" style="stop-color:#4A97C3"/>
						<stop  offset="1" style="stop-color:#DFEAF5"/>
					</linearGradient>
					<path style="fill:url(#SVGID_00000141418217467801349110000003308337235250469768_);" d="M412.399,166.408
						c0.783,1.573,2.692,2.213,4.265,1.431c1.573-0.783,2.213-2.692,1.431-4.265l-3.457-6.945l-5.696,2.835L412.399,166.408z"/>
					<path style="fill:#F6A366;" d="M406.738,155.033l2.204,4.429l5.696-2.835l-2.204-4.429c-0.783-1.573-2.692-2.213-4.265-1.431
						C406.595,151.551,405.955,153.461,406.738,155.033z"/>
				</g>
				<g>
					
						<linearGradient id="SVGID_00000106113877620768464190000013046854736538905256_" gradientUnits="userSpaceOnUse" x1="329.0048" y1="-1.1206" x2="298.6707" y2="20.5355" gradientTransform="matrix(-0.8449 -0.5349 0.5349 -0.8449 581.0498 322.9162)">
						<stop  offset="0" style="stop-color:#4A97C3"/>
						<stop  offset="1" style="stop-color:#DFEAF5"/>
					</linearGradient>
					<path style="fill:url(#SVGID_00000106113877620768464190000013046854736538905256_);" d="M326.887,155.235
						c2.841,1.799,6.602,0.954,8.401-1.887c1.799-2.841,0.954-6.602-1.887-8.401l-12.545-7.943l-6.514,10.288L326.887,155.235z"/>
					
						<linearGradient id="SVGID_00000047020144950278555630000000663447791012187057_" gradientUnits="userSpaceOnUse" x1="329.0003" y1="11.2494" x2="287.0163" y2="16.1749" gradientTransform="matrix(-0.8449 -0.5349 0.5349 -0.8449 581.0498 322.9162)">
						<stop  offset="0" style="stop-color:#4A97C3"/>
						<stop  offset="1" style="stop-color:#DFEAF5"/>
					</linearGradient>
					<path style="fill:url(#SVGID_00000047020144950278555630000000663447791012187057_);" d="M306.341,142.226l8.001,5.066
						l6.514-10.288l-8.001-5.066c-2.841-1.799-6.602-0.954-8.401,1.887C302.656,136.666,303.5,140.427,306.341,142.226z"/>
				</g>
				<g>
					
						<linearGradient id="SVGID_00000066509815532906647490000000449015689731843742_" gradientUnits="userSpaceOnUse" x1="309.3304" y1="76.3556" x2="264.6215" y2="108.274" gradientTransform="matrix(0.7957 -0.6057 0.6419 0.8434 -40.2399 221.6346)">
						<stop  offset="0" style="stop-color:#4A97C3"/>
						<stop  offset="1" style="stop-color:#DFEAF5"/>
					</linearGradient>
					<path style="fill:url(#SVGID_00000066509815532906647490000000449015689731843742_);" d="M232.574,129.106
						c-3.944,3.002-4.562,8.824-1.38,13.004c3.181,4.18,8.958,5.135,12.901,2.133l17.415-13.255l-11.521-15.137L232.574,129.106z"/>
					<path style="fill:#F6A366;" d="M261.095,107.397l-11.106,8.454l11.521,15.137l11.106-8.454
						c3.944-3.002,4.562-8.824,1.38-13.004C270.815,105.35,265.039,104.395,261.095,107.397z"/>
				</g>
			</g>
			<g>
				<g>
					<rect x="205.738" y="350.214" style="fill:#2E6C9C;" width="75.703" height="66.088"/>
					<path style="fill:#1B5D89;" d="M313.213,422.864H166.219c-2.33,0-4.218-1.889-4.218-4.218l0,0c0-2.33,1.889-4.218,4.218-4.218
						h146.993c2.33,0,4.218,1.889,4.218,4.218l0,0C317.431,420.975,315.542,422.864,313.213,422.864z"/>
					<polygon style="fill:#125377;" points="281.441,363.731 205.742,362.416 205.738,395.367 281.441,379.549 					"/>
				</g>
				<g>
					<path style="fill:#2E6C9C;" d="M399.803,172.788c-3.499-3.303-8.205-5.342-13.396-5.342H110.109
						c-10.566,0-19.132,8.566-19.132,19.132v156.88C301.218,346.516,377.416,223.358,399.803,172.788z"/>
					<path style="fill:#1F608C;" d="M399.803,172.788c-22.387,50.57-98.585,173.728-308.826,170.671v11.013
						c0,5.114,4.146,9.26,9.259,9.26h294.02c6.454,0,11.686-5.232,11.686-11.686V186.983
						C405.943,181.385,403.576,176.35,399.803,172.788z"/>
				</g>
				<g>
					<path style="fill:#125377;" d="M247.341,338.741c2.458,1.549,4.097,4.281,4.097,7.401c0,4.833-3.918,8.751-8.751,8.751
						c-2.608,0-4.943-1.147-6.546-2.957c1.543,3.099,4.733,5.233,8.43,5.233c5.203,0,9.421-4.218,9.421-9.421
						C253.992,343.508,251.192,339.924,247.341,338.741z"/>
					<path style="fill:#2E6C9C;" d="M242.687,354.893c4.833,0,8.751-3.918,8.751-8.751c0-3.12-1.639-5.852-4.097-7.401
						c-0.876-0.269-1.806-0.415-2.77-0.415c-5.203,0-9.421,4.218-9.421,9.421c0,1.507,0.363,2.926,0.992,4.188
						C237.744,353.746,240.079,354.893,242.687,354.893z"/>
				</g>
				<g>
					<rect x="105.193" y="181.515" style="fill:#0C4666;" width="283.462" height="151.526"/>
					<rect x="116.184" y="187.446" style="opacity:0.88;fill:#FFFFFF;" width="148.315" height="137.107"/>
					<g>
						<rect x="276.825" y="187.446" style="opacity:0.88;fill:#FFFFFF;" width="100.521" height="137.107"/>
						<g>
							<g>
								<path style="fill:#A6CADD;" d="M289.946,215.52c1.534-0.063,3.004,0.804,4.529,0.253c1.153-0.417,1.953-1.42,2.46-2.5
									c0.555-1.183,0.76-2.443,1.054-3.704c0.314-1.347,0.751-2.799,1.959-3.61c-0.233-0.061-0.465-0.122-0.698-0.183
									c0.714,1.445,0.802,3.058,0.783,4.643c-0.022,1.709-0.092,3.408,0.001,5.117c0.093,1.708,0.293,3.412,0.592,5.096
									c0.207,1.161,0.514,2.496,1.681,3.052c0.349,0.166,0.756-0.032,0.768-0.441c0.121-4.077,1.033-8.101,2.701-11.825
									c-0.311-0.041-0.622-0.081-0.933-0.122c0.478,1.488,1.784,2.504,3.27,2.893c0.936,0.245,1.92,0.259,2.878,0.182
									c0.795-0.064,1.829-0.069,2.563-0.412c0.704-0.329,0.893-0.999,1.053-1.704c0.192-0.847,0.325-1.706,0.481-2.56
									c0.309-1.695,0.693-3.449,1.849-4.788c-0.29-0.12-0.581-0.241-0.871-0.361c0.397,3.739,0.794,7.478,1.191,11.217
									c0.036,0.336,0.296,0.572,0.646,0.492c0.723-0.165,1.229-0.674,1.653-1.254c0.418-0.572,0.743-1.365,1.347-1.768
									c0.715-0.477,1.316,0.242,1.731,0.763c0.517,0.649,0.998,1.281,1.815,1.555c0.349,0.117,0.607-0.186,0.646-0.492
									c0.29-2.272,0.757-4.522,1.394-6.722c0.146-0.503,0.262-1.069,0.483-1.547c0.157-0.34,0.296-0.476,0.509-0.09
									c0.076,0.137,0.089,0.335,0.117,0.485c0.214,1.183,0.32,2.396,0.433,3.592c0.215,2.275,0.285,4.55,0.325,6.834
									c0.034,1.962,0.182,3.935,1.113,5.702c0.204,0.387,0.829,0.296,0.932-0.122c0.538-2.178,1.075-4.356,1.612-6.534
									c0.129-0.524,0.259-1.049,0.388-1.573c0.121-0.489,0.198-1.052,0.444-1.498c0.467-0.847,1.418-0.636,2.2-0.442
									c1.498,0.371,2.974,0.761,4.301-0.282c1.18-0.928,1.792-2.472,2.082-3.904c0.362-1.787,0.428-4.091,2.003-5.306
									c-0.233-0.061-0.465-0.122-0.698-0.183c0.819,1.798,0.857,3.795,0.949,5.734c0.044,0.93,0.1,1.859,0.238,2.78
									c0.098,0.655,0.231,1.372,0.941,1.604c0.434,0.142,0.953,0.02,1.393-0.02c0.498-0.046,0.997-0.091,1.495-0.137
									c0.757-0.069,1.516-0.141,2.253-0.34c1.245-0.337,2.489-1.053,2.747-2.417c-0.284,0.075-0.569,0.15-0.853,0.225
									c2.43,2.561,2.113,6.712,5.076,8.914c0.273,0.203,0.665-0.018,0.75-0.305c0.35-1.191,0.7-2.381,1.049-3.572
									c0.296-1.007,0.516-2.085,0.947-3.045c0.919-2.048,3.156-1.55,4.896-1.008c0.628,0.196,0.897-0.789,0.271-0.984
									c-1.887-0.588-4.345-1.053-5.677,0.825c-0.661,0.933-0.895,2.149-1.211,3.226c-0.42,1.429-0.84,2.857-1.259,4.286
									c0.25-0.102,0.5-0.203,0.75-0.305c-1.397-1.038-1.979-2.77-2.541-4.343c-0.565-1.579-1.153-3.173-2.328-4.411
									c-0.25-0.264-0.781-0.154-0.853,0.225c-0.225,1.191-1.467,1.604-2.521,1.818c-0.737,0.15-1.494,0.189-2.242,0.258
									c-0.415,0.038-0.831,0.078-1.246,0.114c-0.514,0.045-0.708-0.037-0.8-0.556c-0.541-3.045-0.024-6.188-1.342-9.082
									c-0.104-0.229-0.495-0.34-0.698-0.183c-1.367,1.055-1.87,2.638-2.18,4.278c-0.308,1.632-0.491,3.455-1.698,4.719
									c-1.357,1.42-3.038,0.404-4.662,0.209c-0.748-0.09-1.509,0.042-2.055,0.601c-0.655,0.67-0.781,1.731-0.995,2.598
									c-0.637,2.581-1.274,5.163-1.911,7.744c0.311-0.041,0.622-0.081,0.932-0.122c-0.895-1.698-0.953-3.635-0.978-5.514
									c-0.028-2.132-0.111-4.258-0.308-6.382c-0.093-1.001-0.208-2-0.342-2.996c-0.099-0.738-0.119-1.69-0.714-2.237
									c-0.504-0.463-1.227-0.328-1.648,0.166c-0.52,0.61-0.673,1.599-0.887,2.346c-0.646,2.254-1.1,4.552-1.397,6.877
									c0.215-0.164,0.431-0.328,0.646-0.492c-0.803-0.269-1.217-1.202-1.776-1.775c-0.563-0.576-1.338-0.909-2.136-0.643
									c-0.716,0.239-1.176,0.898-1.573,1.5c-0.411,0.622-0.814,1.443-1.602,1.623c0.215,0.164,0.431,0.328,0.646,0.492
									c-0.397-3.739-0.794-7.478-1.191-11.217c-0.042-0.395-0.553-0.729-0.871-0.361c-1.915,2.217-1.983,5.173-2.615,7.894
									c-0.09,0.388-0.137,0.822-0.552,0.986c-0.338,0.134-0.764,0.14-1.119,0.185c-0.853,0.107-1.719,0.189-2.578,0.118
									c-1.467-0.121-3.044-0.847-3.524-2.342c-0.121-0.377-0.741-0.549-0.932-0.122c-1.745,3.895-2.714,8.073-2.84,12.34
									c0.256-0.147,0.512-0.294,0.768-0.441c-1.178-0.561-1.227-2.438-1.393-3.551c-0.258-1.725-0.397-3.469-0.428-5.213
									c-0.053-2.933,0.482-6.046-0.869-8.777c-0.117-0.237-0.481-0.329-0.698-0.183c-2.258,1.515-2.269,4.298-2.993,6.652
									c-0.341,1.11-0.915,2.379-1.995,2.947c-1.399,0.736-3.025-0.238-4.499-0.177
									C289.292,214.527,289.288,215.547,289.946,215.52L289.946,215.52z"/>
							</g>
							<g>
								<path style="fill:#A6CADD;" d="M359.739,229.915h-66.561c-0.435,0-0.787-0.352-0.787-0.787l0,0
									c0-0.435,0.352-0.787,0.787-0.787h66.561c0.435,0,0.787,0.352,0.787,0.787l0,0
									C360.526,229.563,360.174,229.915,359.739,229.915z"/>
								<path style="fill:#A6CADD;" d="M359.739,234.23h-66.561c-0.435,0-0.787-0.352-0.787-0.787l0,0
									c0-0.435,0.352-0.787,0.787-0.787h66.561c0.435,0,0.787,0.352,0.787,0.787l0,0
									C360.526,233.878,360.174,234.23,359.739,234.23z"/>
								<path style="fill:#A6CADD;" d="M359.739,238.544h-66.561c-0.435,0-0.787-0.352-0.787-0.787l0,0
									c0-0.435,0.352-0.787,0.787-0.787h66.561c0.435,0,0.787,0.352,0.787,0.787l0,0
									C360.526,238.192,360.174,238.544,359.739,238.544z"/>
								<path style="fill:#A6CADD;" d="M359.739,242.859h-66.561c-0.435,0-0.787-0.352-0.787-0.787l0,0
									c0-0.435,0.352-0.787,0.787-0.787h66.561c0.435,0,0.787,0.352,0.787,0.787l0,0
									C360.526,242.507,360.174,242.859,359.739,242.859z"/>
							</g>
							<g>
								<path style="fill:#A6CADD;" d="M359.739,283.552h-66.561c-0.435,0-0.787-0.352-0.787-0.787l0,0
									c0-0.435,0.352-0.787,0.787-0.787h66.561c0.435,0,0.787,0.352,0.787,0.787l0,0
									C360.526,283.2,360.174,283.552,359.739,283.552z"/>
								<path style="fill:#A6CADD;" d="M359.739,287.867h-66.561c-0.435,0-0.787-0.352-0.787-0.787l0,0
									c0-0.435,0.352-0.787,0.787-0.787h66.561c0.435,0,0.787,0.352,0.787,0.787l0,0
									C360.526,287.515,360.174,287.867,359.739,287.867z"/>
								<path style="fill:#A6CADD;" d="M359.739,292.182h-66.561c-0.435,0-0.787-0.352-0.787-0.787l0,0
									c0-0.435,0.352-0.787,0.787-0.787h66.561c0.435,0,0.787,0.352,0.787,0.787l0,0
									C360.526,291.829,360.174,292.182,359.739,292.182z"/>
								<path style="fill:#A6CADD;" d="M359.739,296.496h-66.561c-0.435,0-0.787-0.352-0.787-0.787l0,0
									c0-0.435,0.352-0.787,0.787-0.787h66.561c0.435,0,0.787,0.352,0.787,0.787l0,0
									C360.526,296.144,360.174,296.496,359.739,296.496z"/>
							</g>
							<g>
								
									<ellipse transform="matrix(0.7071 -0.7071 0.7071 0.7071 -94.0559 295.7727)" style="fill:#54CC85;" cx="310.001" cy="261.422" rx="12.36" ry="12.36"/>
								<path style="fill:#FFFFFF;" d="M321.53,255.413c-0.34,0.61-0.81,1.161-1.296,1.668c-2.259-1.893-4.518-3.785-6.777-5.678
									c-0.309-0.259-0.618-0.518-0.927-0.776c0.437-0.593,0.929-1.162,1.495-1.612c0.257-0.204-0.106-0.563-0.361-0.361
									c-0.648,0.516-1.193,1.195-1.678,1.859c-0.535,0.732-0.983,1.525-1.366,2.348c-0.114,0.053-0.19,0.179-0.149,0.298
									c-0.408,0.931-0.719,1.905-0.931,2.897c-0.291,1.365-0.4,2.768-0.346,4.162c0.018,0.476,0.063,0.95,0.11,1.423
									c-0.396,0.027-0.793,0.057-1.188,0.107c-0.72,0.091-1.435,0.215-2.141,0.383c-0.252,0.06-0.497,0.144-0.746,0.215
									c-0.035,0.003-0.069,0.013-0.1,0.029c-1.205,0.352-2.371,0.829-3.455,1.458c-0.008,0.004-0.014,0.007-0.021,0.011
									c-0.553,0.323-1.091,0.672-1.593,1.073c-0.751,0.599-1.531,1.319-2.024,2.157c-0.167,0.284,0.274,0.541,0.44,0.257
									c0.247-0.419,0.588-0.808,0.957-1.172c2.266,1.874,4.531,3.748,6.797,5.623c0.282,0.233,0.564,0.466,0.845,0.699
									c-0.319,0.462-0.676,0.9-1.095,1.249c-0.253,0.211,0.11,0.57,0.361,0.361c0.598-0.498,1.078-1.184,1.489-1.836
									c0.426-0.678,0.762-1.404,1.051-2.149c0.045-0.048,0.071-0.109,0.069-0.173c0.411-1.099,0.699-2.246,0.852-3.407
									c0.008-0.064,0.011-0.128,0.019-0.192c0.023-0.045,0.026-0.095,0.014-0.145c0.152-1.354,0.153-2.721,0.026-4.078
									c0.122-0.009,0.243-0.021,0.365-0.029c1.449-0.103,2.891-0.366,4.271-0.823c1.213-0.401,2.365-0.967,3.439-1.654
									c0.046-0.017,0.087-0.043,0.12-0.079c0.683-0.446,1.341-0.931,1.939-1.49c0.737-0.688,1.48-1.481,1.975-2.369
									C322.13,255.384,321.69,255.126,321.53,255.413z M312.038,251.333c0.063-0.096,0.133-0.193,0.199-0.289
									c2.273,1.904,4.545,3.809,6.818,5.713c0.272,0.228,0.544,0.456,0.816,0.684c-0.612,0.601-1.285,1.135-1.998,1.611
									c-2.032-1.792-4.064-3.585-6.096-5.377c-0.229-0.202-0.458-0.404-0.686-0.605
									C311.369,252.47,311.676,251.886,312.038,251.333z M314.832,260.607c-0.008,0.003-0.016,0.005-0.024,0.008
									c-1.404-1.169-2.808-2.337-4.212-3.506c-0.204-0.169-0.407-0.339-0.611-0.508c-0.004-0.003-0.008-0.003-0.012-0.006
									c0.193-1.041,0.495-2.057,0.906-3.032c1.975,1.742,3.95,3.484,5.925,5.226c0.209,0.184,0.417,0.368,0.626,0.552
									C316.608,259.845,315.738,260.275,314.832,260.607z M305.195,262.883c1.221,1.03,2.442,2.061,3.663,3.092
									c0.147,0.124,0.294,0.249,0.442,0.373c-0.134,1.079-0.378,2.142-0.74,3.165c-1.918-1.637-3.835-3.274-5.753-4.911
									c-0.193-0.165-0.386-0.329-0.578-0.494C303.171,263.593,304.168,263.187,305.195,262.883z M307.724,271.43
									c-0.115,0.208-0.237,0.419-0.366,0.628c-2.253-1.863-4.505-3.727-6.758-5.59c-0.265-0.22-0.531-0.439-0.796-0.659
									c0.079-0.071,0.157-0.144,0.236-0.213c0.533-0.463,1.118-0.856,1.722-1.219c1.964,1.677,3.928,3.354,5.892,5.03
									c0.242,0.206,0.484,0.413,0.725,0.619C308.187,270.506,307.974,270.977,307.724,271.43z M309.395,262.641
									c0.054,0.78,0.068,1.563,0.032,2.344c-0.011,0.249-0.048,0.497-0.07,0.746c-1.132-0.955-2.264-1.91-3.395-2.865
									c-0.061-0.051-0.121-0.102-0.182-0.154c1.179-0.302,2.367-0.454,3.571-0.557
									C309.366,262.317,309.384,262.479,309.395,262.641z M309.819,261.601c-0.12-1.374-0.174-2.734-0.005-4.113
									c0.013-0.108,0.042-0.214,0.058-0.322c1.365,1.136,2.73,2.273,4.095,3.409c0.09,0.075,0.181,0.151,0.271,0.226
									c-1.17,0.377-2.38,0.626-3.604,0.74C310.363,261.566,310.091,261.583,309.819,261.601z"/>
							</g>
							<g>
								
									<ellipse transform="matrix(0.7071 -0.7071 0.7071 0.7071 -83.945 320.1826)" style="fill:#54CC85;" cx="344.522" cy="261.422" rx="12.36" ry="12.36"/>
								<path style="fill:#FFFFFF;" d="M351.627,260.278c-0.806,0-1.613,0-2.419,0c-0.794-2.439-1.587-4.878-2.38-7.318
									c-0.113-0.347-0.64-0.381-0.738,0c-1.036,4.042-2.08,8.078-3.178,12.103c-0.18,0.659-0.36,1.319-0.54,1.978
									c-0.844-2.176-1.689-4.352-2.533-6.528c-0.062-0.159-0.188-0.281-0.369-0.281c-1.034,0-2.067,0-3.101,0
									c-0.492,0-0.493,0.765,0,0.765c0.947,0,1.894,0,2.841,0c0.953,2.455,1.905,4.909,2.857,7.364
									c0.129,0.333,0.631,0.392,0.738,0c1.093-4.007,2.18-8.012,3.211-12.034c0.162-0.632,0.324-1.263,0.486-1.894
									c0.686,2.11,1.373,4.22,2.059,6.33c0.052,0.161,0.195,0.281,0.369,0.281c0.899,0,1.798,0,2.697,0
									C352.12,261.044,352.12,260.278,351.627,260.278z"/>
							</g>
						</g>
					</g>
				</g>
				<g>
					<path style="fill:#E89256;" d="M284.447,166.063c0.951,3.043,1.27,6.284,0.829,9.58c-1.793,13.386-15.403,22.609-30.398,20.601
						c-7.019-0.94-13.091-4.18-17.387-8.729l-10.975,1.144l-3.976,4.117l16.389-1.708c4.297,4.548,10.368,7.788,17.387,8.729
						c14.995,2.009,28.605-7.214,30.398-20.601C287.332,174.579,286.464,170.071,284.447,166.063z"/>
					<path style="fill:#F6A366;" d="M254.878,196.243c14.995,2.009,28.605-7.214,30.398-20.601c0.442-3.296,0.122-6.536-0.829-9.58
						c-3.832-7.616-11.813-13.427-21.637-14.743c-14.995-2.009-28.605,7.214-30.398,20.601c-0.449,3.348-0.107,6.637,0.879,9.722
						l-6.776,7.016l10.975-1.144C241.787,192.063,247.858,195.303,254.878,196.243z"/>
					<g>
						<path style="fill:#FFFFFF;" d="M276.687,171.163h-34.33c-0.294,0-0.532-0.238-0.532-0.532v-0.276
							c0-0.294,0.238-0.532,0.532-0.532h34.33c0.294,0,0.533,0.238,0.533,0.532v0.276
							C277.219,170.925,276.981,171.163,276.687,171.163z"/>
						<path style="fill:#FFFFFF;" d="M276.687,174.839h-34.33c-0.294,0-0.532-0.238-0.532-0.532v-0.276
							c0-0.294,0.238-0.532,0.532-0.532h34.33c0.294,0,0.533,0.238,0.533,0.532v0.276
							C277.219,174.6,276.981,174.839,276.687,174.839z"/>
						<path style="fill:#FFFFFF;" d="M276.687,178.514h-34.33c-0.294,0-0.532-0.238-0.532-0.532v-0.276
							c0-0.294,0.238-0.532,0.532-0.532h34.33c0.294,0,0.533,0.238,0.533,0.532v0.276
							C277.219,178.275,276.981,178.514,276.687,178.514z"/>
						<path style="fill:#FFFFFF;" d="M276.687,182.189h-34.33c-0.294,0-0.532-0.238-0.532-0.532v-0.276
							c0-0.294,0.238-0.533,0.532-0.533h34.33c0.294,0,0.533,0.238,0.533,0.533v0.276
							C277.219,181.951,276.981,182.189,276.687,182.189z"/>
					</g>
				</g>
				<g>
					<path style="opacity:0.35;fill:#0C4666;" d="M324.826,224.616c-0.061-0.395-0.587-0.48-0.985-0.456
						c-1.458,0.088-2.901,0.34-4.346,0.55c-6.853,0.999-13.839,1.065-20.713,0.222c0.254-0.182,0.528-0.37,0.84-0.567
						c1.456-0.921,4.186-2.285,4.748-3.914c0.196-0.567,0.326-1.309-0.037-1.787c-0.389-0.512-0.84-0.517-1.456-0.332
						c-0.615,0.185-1.131,0.599-1.646,0.983c-1.182,0.881-2.453,1.651-3.821,2.201c-1.936,0.778-4.028,1.1-5.979,1.839
						c-0.665,0.252-1.222,0.328-1.88,0.618c-0.276,0.069-0.694,0.304-0.95,0.428c-3.165,1.541-5.027,4.767-6.037,5.776
						c-1.666,1.664-2.413,2.309-3.121,3.22l-1.197-1.623c-0.345-0.468-0.984-0.606-1.492-0.324l-23.87,13.296
						c-2.156,0.906-6.289,3.949-7.832,3.825c-0.017-0.002-0.034-0.001-0.05-0.003c-0.493-0.063-1.182-0.533-1.891-1.14
						c-11.581-11.955-29.411-30.142-29.411-30.142c-3.828-3.313-10.458-6.28-15.55-8.249c-3.113-6.766-8.324-6.748-8.543-6.745
						l0.005,0.283c-0.329-4.07-0.007-8.162,1.313-11.924c0.728-0.828,1.394-1.711,1.993-2.643c0.692,2.259,2.588,4.036,4.779,4.933
						c2.237,0.916,4.741,1.003,7.137,0.682c7.642-1.025,14.556-6.365,17.481-13.499c1.094-2.669,1.618-5.823,0.283-8.372
						c-0.014-0.028-0.026-0.056-0.041-0.083c-1.91-3.521-6.673-4.598-8.859-7.955c-2.382-3.658-0.906-8.607-2.217-12.771
						c-1.339-4.254-5.894-7.245-10.329-6.784c-2.547,0.265-4.971,1.525-7.528,1.384c-3.655-0.201-6.509-3.146-9.9-4.524
						c-3.781-1.537-8.343-0.967-11.63,1.453c-1.045,0.769-1.944,1.719-2.68,2.785c-2.447-0.105-5.106,0.287-6.841,1.29
						c-1.817,1.05-3.924,3.002-4.689,5.108c-1.076,2.964-0.801,7.367-2.024,10.28c-1.231,2.933-3.851,5.104-6.204,7.347
						c-2.394,2.283-4.635,4.819-5.8,7.835c-1.512,3.913-1.032,8.412,1.031,12.094c1.057,1.888,2.511,3.558,4.225,4.953
						c1.63,1.326,3.494,2.405,5.485,3.18c3.392,1.32,7.404,1.754,10.66,0.158c2.48-1.215,4.272-3.54,4.912-6.105
						c0.089-0.356,0.151-0.716,0.198-1.078c0.458,0.498,0.938,0.974,1.426,1.442c0.608,1.415,0.993,2.983,1.079,5.125
						c0.125,3.102,0.144,3.585,0.167,3.899c-0.045,0.872-0.112,1.744-0.219,2.611l-0.055-0.488
						c-0.228,0.025-4.141,0.526-7.275,5.015c-5.922,1.875-15.706,5.385-20.302,9.361c0,0-6.043,15.976-15.688,50.582
						c-2.004,7.191-2.314,14.749-0.941,22.086l6.698,35.103l13.747,0.332c7.971,0.632,23.73,1.579,27.649-0.435
						c0.032-0.017,0.062-0.048,0.093-0.068c2.671,0.139,5.344,0.178,8.018,0.122c0.01,0.006,0.019,0.017,0.03,0.022
						c7.369,3.787,32.321,0.027,32.321,0.027c-2.582-14.776-3.364-45.529-3.541-70.415l25.856,18.402
						c1.354,0.964,3.17,0.967,4.528,0.008l41.549-29.364c0.549-0.388,0.673-1.152,0.274-1.694l-1.96-2.659
						c1.426-1.064,2.848-2.132,4.278-3.19c0.929-0.688,1.864-1.377,2.884-1.92c4.236-2.254,9.325-1.742,14.121-1.902
						c3.47-0.116,6.927-0.616,10.288-1.49c3.251-0.845,6.608-2.22,8.645-4.822c0.041-0.035,0.068-0.06,0.068-0.06
						c-0.014,0.011-0.034,0.021-0.048,0.031c0.214-0.275,0.427-0.551,0.609-0.855C324.762,224.971,324.854,224.796,324.826,224.616z
						 M196.762,208.511c-0.5-0.186-0.977-0.361-1.43-0.523l0,0l-0.02-0.007c-2.513-0.901-4.209-1.42-4.209-1.42
						c-0.1,0.389-0.201,0.816-0.303,1.261c-0.139,0.017-0.278,0.04-0.416,0.063c-0.315-1.51-0.557-3.047-0.711-4.591
						C190.11,203.291,194.023,203.503,196.762,208.511z M172.746,203.924c-0.146,1.063-0.332,2.121-0.57,3.168
						c-0.581-0.145-1.159-0.297-1.736-0.458c-0.036-0.195-0.055-0.297-0.055-0.297l-2.726,0.92c-0.161,0.048-0.326,0.098-0.499,0.15
						C169.559,204.622,172.125,204.029,172.746,203.924z"/>
					<g>
						<g>
							<path style="fill:#F7B196;" d="M327.711,224.33c-8.108-0.486-17.473,2.106-26.045,0.316c1.654-1.248,4.818-2.497,5.589-4.481
								c0.533-1.12-0.07-2.7-1.493-2.119c-3.974,2.983-8.639,4.218-13.326,5.64c-3.27,1.041-6.011,5.117-6.986,6.205
								c-2.928,2.925-3.019,2.698-5.042,6.309l2.755,5.493c3.573-2.57,6.951-5.46,10.707-7.754
								C304.155,229.344,320.701,235.572,327.711,224.33z"/>
						</g>
						<path style="fill:#E8957C;" d="M315.21,228.76c0.078,0.031,9.373-1.214,11.781-3.096c0,0-2.428,2.251-7.087,3.166
							C315.622,230.052,311.764,229.52,315.21,228.76z"/>
					</g>
					<g>
						<g>
							<g>
								<g>
									<path style="fill:#F7B196;" d="M173.648,189.17c4.184,7.441,2.241,16.924-0.849,24.469
										c-0.547,0.977-0.374,2.167,0.881,2.183c7.781,0.872,16.577,3.692,23.965,0.174c-7.309-7.223-6.592-21.742-1.656-30.121"/>
								</g>
								<g>
									<path style="fill:#E8957C;" d="M194.379,188.449c-2.54,7.693-10.373,13.089-18.435,12.309
										c0.429-4.692-1.401-11.268-5.056-15.604c1.554,0.434,3.107,0.867,4.661,1.301"/>
								</g>
							</g>
							<g>
								<path style="fill:#F7B196;" d="M171.154,148.949c-12.799,13.306-6.4,42.238,11.921,47.002
									c14.298-1.052,20.096-20.521,15.489-32.399c-4.505-11.565-24.038-19.994-30.884-6.321"/>
							</g>
							<g>
								<g>
									<path style="fill:#B7624E;" d="M177.387,171.81c-2.069-1.872-6.768-1.557-7.061,1.516c1.145,0.329,1.801-1.949,3.221-1.84
										C174.511,170.82,178.357,173.996,177.387,171.81L177.387,171.81z"/>
								</g>
								<g>
									<path style="fill:#B7624E;" d="M194.607,169.945c-2.069-1.872-6.768-1.557-7.061,1.516c1.145,0.329,1.801-1.949,3.221-1.84
										C191.731,168.955,195.577,172.13,194.607,169.945L194.607,169.945z"/>
								</g>
								<g>
									<path style="fill:#E8957C;" d="M183.727,170.67c-0.424,7.533,10.204,8.946,0.075,10.24"/>
								</g>
								<path style="fill:#232850;" d="M171.289,166.396c0,0,4.727-1.141,6.215-0.504c1.487,0.637,0.432,1.519-1.91,1.621
									c-2.342,0.101-7.563,1.22-7.563,1.22S168.731,167.249,171.289,166.396z"/>
								<path style="fill:#FFFFFF;" d="M178.664,184.34l11.776-1.449C190.44,182.891,186.636,193.036,178.664,184.34z"/>
								<path style="opacity:0.11;fill:#FF4F5B;" d="M178.231,178.426c0.874,3.392-7.414,5.28-8.095,1.844
									C169.262,176.878,177.549,174.99,178.231,178.426z"/>
								<path style="opacity:0.11;fill:#FF4F5B;" d="M198.254,176.295c0.325,3.487-8.157,4.038-8.285,0.537
									C189.644,173.346,198.126,172.795,198.254,176.295z"/>
							</g>
							<path style="fill:#E8957C;" d="M169.945,158.85c10.722-0.896,5.102,10.224,16.173,10.936
								c7.584,0.211-1.181-16.855-9.205-16.608C168.889,153.425,165.453,155.554,169.945,158.85z"/>
							<g>
								<g>
									<path style="fill:#232850;" d="M187.384,151.201c7.237,2.662,3.322,11.774,8.254,15.821
										c3.56,1.582,8.058,1.176,11.114,3.936c6.097,8.27,13.46,11.956,18.732,0.509c-1.871-3.591-6.699-4.655-8.899-8.039
										c-3.354-7.842,0.834-19.602-12.547-19.554c-7.259,2.607-11.16,0.74-17.427-3.142c-6.41-2.719-14.396,1.167-16.061,7.968
										C176.205,147.377,182.36,148.278,187.384,151.201z"/>
								</g>
								<g>
									<path style="fill:#101638;" d="M223.946,174.496c-6.32,8.437-12.344,2.583-17.194-3.54
										c-3.058-2.76-7.553-2.352-11.114-3.935c-3.817-2.516-2.153-8.058-3.943-11.676c-4.284-6.612-13.878-8.217-21.148-6.646
										c-0.672,2.062-0.58,4.459,0.417,6.404c2.992-1.415,8.367,1.308,9.524,4.408c0.882,2.365,0.328,5.35,2.083,7.163
										c4.721,2.753,12.62,3.335,13.592,9.962c0.653,3.619-1.406,7.404-0.411,10.944c7.787,15.415,35.109-1.803,29.73-16.114
										C225.084,172.53,224.586,173.548,223.946,174.496z"/>
								</g>
								<g>
									<g>
										<path d="M178.631,146.492c15.626,0.616,19.438,3.613,24.092,18.06c6.722,4.782,14.836,10.089,11.35,19.816
											c2.77-2.884,0.411-11.125-3.006-14.238c-2.6-2.725-6.943-3.438-8.737-6.967c-2.073-5.138-2.546-11.627-8.476-14.013
											C189.619,147.338,182.06,145.295,178.631,146.492z"/>
									</g>
									<g>
										<path d="M203.065,149.887c4.337,1.428,3.25,7.02,5.097,10.332c3.216,6.188,10.309,7.983,11.211,14.868
											c0.353-7.112-7.906-9.013-10.594-14.571c-2.134-3.5-0.888-9.54-5.601-11.036
											C202.914,149.415,202.801,149.822,203.065,149.887z"/>
									</g>
								</g>
							</g>
							<g>
								<g>
									<path style="fill:#232850;" d="M154.654,193.738c24.677-7.112-2.191-27.808,17.325-40.786
										c0.02-0.03,3.707-7.419,3.726-7.452c-13.232-2.932-15.386,5.437-16.959,16.151c-7.97,10.711-20.951,19.013-6.749,32.229
										C152.884,193.938,153.782,193.888,154.654,193.738z"/>
								</g>
								<g>
									<path style="fill:#101638;" d="M167.155,174.715c-0.237-4.136,3.974-7.48,4.253-11.613c-0.035-3.4-1.614-7.025,0.57-10.15
										c-7.149,5.074-10.149,14.151-6.615,22.216c3.393,9.158-3.553,19.182-13.367,18.712c8.761,8.679,26.641,3.239,19.926-10.431
										C170.291,180.516,167.345,178.024,167.155,174.715z"/>
								</g>
								<g>
									<g>
										<path d="M170.72,150.904c-8.127,4.137-6.963,13.85-10.145,21.032c-2.864,4.376-9.205,11.423-6.294,16.072
											c-1.176-5.993,2.952-10.622,6.254-15.067C164.328,164.574,163.105,156.382,170.72,150.904L170.72,150.904z"/>
									</g>
									<g>
										<path d="M150.438,184.592c-1.342-4.714,0.875-9.591,3.908-13.208c0.178-0.216-0.143-0.524-0.323-0.305
											C151.178,174.249,147.711,181.86,150.438,184.592L150.438,184.592z"/>
									</g>
								</g>
							</g>
						</g>
						<g>
							<g>
								<path style="fill:#2E6C9C;" d="M173.044,206.274c7.27,2.411,14.713,2.247,22.099,1.28
									c4.903,3.064,14.677,5.083,16.099,11.075c1.674,7.974,1.771,16.183,1.862,24.33c-0.862,24.394,2.837,48.939,4.779,72.744
									c-15.407,13.732-41.568,9.325-60.312,5.493c-2.474-0.395-4.131-2.16-4.077-4.708c-3.044-29.738-1.655-59.731-0.263-89.592
									C153.786,216.716,166.216,212.294,173.044,206.274"/>
							</g>
							<path style="fill:#C7DDEB;" d="M193.987,206.274c0,0,15.764,4.812,22.598,10.726c0,0-1.314,80.7,3.417,107.771
								c0,0-24.952,3.759-32.321-0.027C180.312,320.957,188.869,226.302,193.987,206.274z"/>
							<path style="fill:#C7DDEB;" d="M173.234,206.199c0,0-18.326,4.888-25.16,10.802c0,0,3.876,80.624-0.855,107.695
								c0,0,27.016,2.699,32.321-0.027C186.909,320.882,178.352,226.226,173.234,206.199z"/>
							<path style="fill:#A6CADD;" d="M186.077,272.687l14.606-38.339l-7.303-3.811l8.091-1.051l-3.255-21.784l-4.229-1.427
								C193.987,206.274,185.731,250.702,186.077,272.687z"/>
							<path style="fill:#A6CADD;" d="M181.18,272.464l-14.606-38.339l7.303-3.811l-8.092-1.051l3.255-21.784l4.229-1.427
								C173.27,206.051,181.526,250.479,181.18,272.464z"/>
							<path style="fill:#A6CADD;" d="M153.501,242.76c0,0,3.855,2.103,4.03,25.058c0.175,22.956,11.029,55.32,0.039,53.375
								C146.579,319.249,145.002,256.165,153.501,242.76z"/>
							<g>
								<g>
									<path style="fill:#125377;" d="M201.153,238.193l-0.968-0.253c1.168-1.511,6.381-34.471-7.675-34.933l-0.018-1
										C207.569,202.151,202.602,236.073,201.153,238.193z"/>
								</g>
								<g>
									<path style="fill:#125377;" d="M204.732,240.94c0.097,6.648-10.345,6.648-10.247,0
										C194.388,234.292,204.83,234.292,204.732,240.94z"/>
									<path style="fill:#C7DDEB;" d="M202.407,240.94c0.053,3.631-5.65,3.631-5.597,0
										C196.757,237.309,202.461,237.309,202.407,240.94z"/>
								</g>
							</g>
							<g>
								<path style="fill:#C7DDEB;" d="M216.585,217c0,0,18.219,18.583,29.786,30.529c0.804,0.831,2.065,1.016,3.075,0.453
									l30.193-16.819c0.508-0.283,1.147-0.144,1.492,0.324c0.136,0.992,9.672,11.063,7.263,11.914
									c-54.245,34.775-31.164,39.231-73.562,9.795C214.832,253.196,212.905,228.04,216.585,217z"/>
								<path style="fill:#A6CADD;" d="M242.947,243.999c4.944,6.404,5.96,4.152,12.823,0.46c0,0.001,5.303,0.644,3.266,3.557
									s-3.79,0.219-6.352,1.928c-2.563,1.708,0.416,8.126-4.819,7.491c-5.235-0.635-1.227-6.046-3.242-7.185
									c-2.015-1.139-6.878,1.292-6.046-2.234C239.41,244.49,242.947,243.999,242.947,243.999z"/>
								<path style="fill:#A6CADD;" d="M280.933,234.416c0.028,1.924-2.995,1.924-2.966,0
									C277.938,232.492,280.961,232.491,280.933,234.416z"/>
							</g>
							<g>
								<path style="fill:#C7DDEB;" d="M148.074,217c0,0-6.043,15.976-15.688,50.582c-2.004,7.191-2.314,14.749-0.941,22.086
									l6.698,35.103l23.191,0.561l-9.512-39.365C148.511,259.706,164.631,249.406,148.074,217z"/>
								<path style="fill:#A6CADD;" d="M155.916,318.1c0.028,1.924-2.995,1.924-2.966,0
									C152.921,316.176,155.944,316.176,155.916,318.1z"/>
							</g>
							<g>
								<g>
									<path style="fill:#A6CADD;" d="M208.3,309.673c-3.183-0.598-15.561,2.979-15.546-2.894c0-0.001-0.688-17.421-0.688-17.421
										c-0.076-1.935,1.43-3.565,3.365-3.641c3.183,0.598,15.561-2.979,15.546,2.894c0,0.001,0.688,17.421,0.688,17.421
										C211.741,307.967,210.235,309.597,208.3,309.673z"/>
								</g>
								<g>
									
										<rect x="193.375" y="289.488" transform="matrix(0.9991 -0.042 0.042 0.9991 -11.9914 8.707)" style="fill:#C7DDEB;" width="16.059" height="1.001"/>
								</g>
							</g>
							<g>
								<g>
									<path style="fill:#125377;" d="M171.507,252.602c-2.245-2.242-15.902-46.572,4.143-49.977l0.112,0.994
										c-18.992,3.68-5.25,46.915-3.339,48.583L171.507,252.602z"/>
								</g>
								<g>
									<g>
										<g>
											<path style="fill:#66A8CE;" d="M176.066,275.029c-20.232-21.733,6.13-35.073,8.465-4.139c0.072,0.645,1.093,0.652,1.02,0
												c-0.337-25.187-26.185-25.66-15.235-1.956C170.786,269.909,176.135,278.325,176.066,275.029L176.066,275.029z"/>
										</g>
									</g>
									<g>
										<g>
											<path style="fill:#66A8CE;" d="M169.194,263.966c-0.229-8.223,5.428-12.294,11.852-5.929
												c3.859,0.11-7.185-6.807-9.555-3.229C169.578,255.071,166.545,266.372,169.194,263.966L169.194,263.966z"/>
										</g>
									</g>
									<path style="fill:#125377;" d="M177.59,276.202c0.026,1.771-2.757,1.771-2.73,0
										C174.834,274.431,177.616,274.431,177.59,276.202z"/>
									<path style="fill:#125377;" d="M186.407,271.166c0.026,1.771-2.757,1.771-2.73,0
										C183.65,269.395,186.433,269.395,186.407,271.166z"/>
								</g>
							</g>
						</g>
					</g>
				</g>
			</g>
		</g>
	</g>
</g>
</svg>
