<?xml version="1.0" encoding="utf-8"?>
<!-- Generator: Adobe Illustrator 27.5.0, SVG Export Plug-In . SVG Version: 6.00 Build 0)  -->
<svg version="1.1" xmlns="http://www.w3.org/2000/svg" xmlns:xlink="http://www.w3.org/1999/xlink" x="0px" y="0px"
	 viewBox="0 0 500 500" style="enable-background:new 0 0 500 500;" xml:space="preserve">
<g id="Background_simple">
	<g>
		<g>
			<path style="fill:#C6FF00;" d="M378.072,87.428c-49.502-28.287-93.346-4.95-115.268,19.8
				c-21.922,24.751-38.275,49.847-65.766,54.452c-27.492,4.605-69.302-7.072-100.417,14.85
				c-31.115,21.922-31.026,80.139-6.364,113.146c24.661,33.007,88.395,48.794,161.94,59.402c30.443,4.391,56.622,1.656,79.116-4.389
				l33.408-12.134c16.314-7.443,30.048-15.84,41.582-22.648c17.621-10.402,23.824-35.747,27.201-54.314
				c4.579-25.18,4.83-55.485-1.252-84.031C424.832,136.733,407.985,104.521,378.072,87.428z"/>
			<path style="opacity:0.8;fill:#FFFFFF;" d="M378.072,87.428c-49.502-28.287-93.346-4.95-115.268,19.8
				c-21.922,24.751-38.275,49.847-65.766,54.452c-27.492,4.605-69.302-7.072-100.417,14.85
				c-31.115,21.922-31.026,80.139-6.364,113.146c24.661,33.007,88.395,48.794,161.94,59.402c30.443,4.391,56.622,1.656,79.116-4.389
				l33.408-12.134c16.314-7.443,30.048-15.84,41.582-22.648c17.621-10.402,23.824-35.747,27.201-54.314
				c4.579-25.18,4.83-55.485-1.252-84.031C424.832,136.733,407.985,104.521,378.072,87.428z"/>
		</g>
		<g>
			<path style="opacity:0.8;fill:#C6FF00;" d="M453.739,122.079c-1.12-18.475-13.763-24.54-21.789-15.739
				c-3.915,4.293-4.885,10.514-2.866,15.962c2.811,7.584,7.636,21.054,10.512,31.599c4.243,15.558,2.829,27.579,7.779,21.215
				C452.324,168.752,455.153,145.415,453.739,122.079z"/>
			<path style="opacity:0.8;fill:#FFFFFF;" d="M453.739,122.079c-1.12-18.475-13.763-24.54-21.789-15.739
				c-3.915,4.293-4.885,10.514-2.866,15.962c2.811,7.584,7.636,21.054,10.512,31.599c4.243,15.558,2.829,27.579,7.779,21.215
				C452.324,168.752,455.153,145.415,453.739,122.079z"/>
		</g>
		<g>
			<path style="fill:#C6FF00;" d="M240.175,119.25c7.779-1.414,17.679-19.8,30.408-27.579c12.729-7.779,1.414-13.436-10.607-7.779
				c0,0-9.193,2.121-16.265,16.265C236.639,114.3,232.396,120.665,240.175,119.25z"/>
			<path style="opacity:0.8;fill:#FFFFFF;" d="M240.175,119.25c7.779-1.414,17.679-19.8,30.408-27.579
				c12.729-7.779,1.414-13.436-10.607-7.779c0,0-9.193,2.121-16.265,16.265C236.639,114.3,232.396,120.665,240.175,119.25z"/>
		</g>
		<g>
			<path style="fill:#C6FF00;" d="M227.446,109.35c6.314-2.525,13.192-19.708,6.036-18.831c-1.844,0.226-3.392,1.503-4.152,3.199
				C227.037,98.835,221.765,111.622,227.446,109.35z"/>
			<path style="opacity:0.8;fill:#FFFFFF;" d="M227.446,109.35c6.314-2.525,13.192-19.708,6.036-18.831
				c-1.844,0.226-3.392,1.503-4.152,3.199C227.037,98.835,221.765,111.622,227.446,109.35z"/>
		</g>
	</g>
</g>
<g id="Shadow">
	<g>
		<ellipse style="fill:#C6FF00;" cx="265.98" cy="421.665" rx="202.316" ry="7.521"/>
		<ellipse style="opacity:0.8;fill:#FFFFFF;" cx="265.98" cy="421.665" rx="202.316" ry="7.521"/>
	</g>
</g>
<g id="Ladder">
	<g>
		<path style="fill:#FFFFFF;" d="M363.222,138.965c-0.828,0-1.5,0.671-1.5,1.5v7.693h-27.408v-7.693c0-0.829-0.672-1.5-1.5-1.5
			c-0.828,0-1.5,0.671-1.5,1.5v193.73c0,0.828,0.672,1.5,1.5,1.5c0.828,0,1.5-0.672,1.5-1.5V290.87h27.408v43.326
			c0,0.828,0.672,1.5,1.5,1.5c0.828,0,1.5-0.672,1.5-1.5v-193.73C364.722,139.637,364.05,138.965,363.222,138.965z M361.722,287.87
			h-27.408v-9.717h27.408V287.87z M361.722,275.141h-27.408v-9.706h27.408V275.141z M361.722,262.423h-27.408v-9.679h27.408V262.423
			z M361.722,249.706h-27.408v-9.631h27.408V249.706z M361.722,237.015h-27.408v-9.537h27.408V237.015z M361.722,224.345h-27.408
			v-9.584h27.408V224.345z M361.722,211.749h-27.408v-9.678h27.408V211.749z M361.722,199.032h-27.408v-9.678h27.408V199.032z
			 M361.722,186.342h-27.408v-9.717h27.408V186.342z M361.722,173.62h-27.408v-9.729h27.408V173.62z M361.722,160.887h-27.408
			v-9.729h27.408V160.887z"/>
	</g>
</g>
<g id="Plant">
	<g id="Shadows">
	</g>
	<g>
		<g>
			<path style="fill:#C6FF00;" d="M103.584,295.164c0,0,22.444-30.738,11.497-37.954c-11.394-7.511-16.746,15.236-19.155,26.41
				c-5.14,23.843-3.684,28.904-0.235,23.659L103.584,295.164z"/>
			<path style="opacity:0.5;fill:#FFFFFF;" d="M103.584,295.164c0,0,22.444-30.738,11.497-37.954
				c-11.394-7.511-16.746,15.236-19.155,26.41c-5.14,23.843-3.684,28.904-0.235,23.659L103.584,295.164z"/>
		</g>
		<g>
			<path style="fill:#C6FF00;" d="M112.042,314.062c0,0,31.21-21.783,23.2-32.163c-8.336-10.804-20.786,8.972-26.694,18.758
				c-12.605,20.881-12.871,26.14-7.906,22.3L112.042,314.062z"/>
			<path style="opacity:0.5;fill:#FFFFFF;" d="M112.042,314.062c0,0,31.21-21.783,23.2-32.163
				c-8.336-10.804-20.786,8.972-26.694,18.758c-12.605,20.881-12.871,26.14-7.906,22.3L112.042,314.062z"/>
		</g>
		<g>
			<path style="fill:#C6FF00;" d="M112.676,339.318c0,0,27.018-12.131,22.398-21.229c-4.808-9.468-17.192,3.847-23.127,10.473
				c-12.663,14.138-13.629,18.12-9.276,15.904L112.676,339.318z"/>
			<path style="opacity:0.5;fill:#FFFFFF;" d="M112.676,339.318c0,0,27.018-12.131,22.398-21.229
				c-4.808-9.468-17.192,3.847-23.127,10.473c-12.663,14.138-13.629,18.12-9.276,15.904L112.676,339.318z"/>
		</g>
		<g>
			<path style="fill:#C6FF00;" d="M114.281,364.693c0,0,27.018-12.132,22.398-21.228c-4.808-9.469-17.192,3.847-23.127,10.473
				c-12.663,14.138-13.629,18.12-9.276,15.904L114.281,364.693z"/>
			<path style="opacity:0.5;fill:#FFFFFF;" d="M114.281,364.693c0,0,27.018-12.132,22.398-21.228
				c-4.808-9.469-17.192,3.847-23.127,10.473c-12.663,14.138-13.629,18.12-9.276,15.904L114.281,364.693z"/>
		</g>
		<g>
			<path style="fill:#C6FF00;" d="M82.611,308.009c0,0-29.676-23.83-37.387-13.226c-8.026,11.037,14.452,17.427,25.504,20.346
				c23.582,6.229,28.704,5.006,23.623,1.32L82.611,308.009z"/>
			<path style="opacity:0.5;fill:#FFFFFF;" d="M82.611,308.009c0,0-29.676-23.83-37.387-13.226
				c-8.026,11.037,14.452,17.427,25.504,20.346c23.582,6.229,28.704,5.006,23.623,1.32L82.611,308.009z"/>
		</g>
		<g>
			<path style="fill:#C6FF00;" d="M83.494,327.909c0,0-33.821-17.455-39.27-5.53c-5.672,12.412,17.628,14.206,29.039,14.87
				c24.35,1.417,29.126-0.8,23.414-3.402L83.494,327.909z"/>
			<path style="opacity:0.5;fill:#FFFFFF;" d="M83.494,327.909c0,0-33.821-17.455-39.27-5.53
				c-5.672,12.412,17.628,14.206,29.039,14.87c24.35,1.417,29.126-0.8,23.414-3.402L83.494,327.909z"/>
		</g>
		<g>
			<path style="fill:#C6FF00;" d="M87.585,350.229c0,0-29.005-13.979-33.337-3.768c-4.509,10.628,15.235,11.606,24.901,11.904
				c20.624,0.635,24.612-1.35,19.722-3.419L87.585,350.229z"/>
			<path style="opacity:0.5;fill:#FFFFFF;" d="M87.585,350.229c0,0-29.005-13.979-33.337-3.768
				c-4.509,10.628,15.235,11.606,24.901,11.904c20.624,0.635,24.612-1.35,19.722-3.419L87.585,350.229z"/>
		</g>
		<g>
			<path style="fill:#C6FF00;" d="M88.969,368.257c0,0-27.357-16.978-32.749-7.285c-5.612,10.089,13.918,13.158,23.497,14.479
				c20.44,2.82,24.617,1.27,19.973-1.306L88.969,368.257z"/>
			<path style="opacity:0.5;fill:#FFFFFF;" d="M88.969,368.257c0,0-27.357-16.978-32.749-7.285
				c-5.612,10.089,13.918,13.158,23.497,14.479c20.44,2.82,24.617,1.27,19.973-1.306L88.969,368.257z"/>
		</g>
		<g>
			<path style="fill:#C6FF00;" d="M86.407,277.812c0,0-5.141-44.636-21.98-40.069c-17.527,4.753-2.87,27.341,4.542,38.232
				c15.815,23.24,21.628,25.809,20.383,18.546L86.407,277.812z"/>
			<path style="opacity:0.5;fill:#FFFFFF;" d="M86.407,277.812c0,0-5.141-44.636-21.98-40.069
				c-17.527,4.753-2.87,27.341,4.542,38.232c15.815,23.24,21.628,25.809,20.383,18.546L86.407,277.812z"/>
		</g>
		<path style="fill:none;stroke:#C6FF00;stroke-width:1.252;stroke-linecap:round;stroke-linejoin:round;stroke-miterlimit:10;" d="
			M67.859,253.967c0,0,25.659,48.113,29.645,70.433c4.579,25.643,5.321,54.28,2.157,76.724"/>
		
			<line style="fill:none;stroke:#C6FF00;stroke-width:1.252;stroke-linecap:round;stroke-linejoin:round;stroke-miterlimit:10;" x1="93.446" y1="309.548" x2="106.019" y2="271.046"/>
		
			<line style="fill:none;stroke:#C6FF00;stroke-width:1.252;stroke-linecap:round;stroke-linejoin:round;stroke-miterlimit:10;" x1="97.504" y1="324.399" x2="121.162" y2="294.645"/>
		
			<line style="fill:none;stroke:#C6FF00;stroke-width:1.252;stroke-linecap:round;stroke-linejoin:round;stroke-miterlimit:10;" x1="95.993" y1="318.99" x2="61.727" y2="304.599"/>
		
			<line style="fill:none;stroke:#C6FF00;stroke-width:1.252;stroke-linecap:round;stroke-linejoin:round;stroke-miterlimit:10;" x1="100.467" y1="344.546" x2="126.232" y2="324.805"/>
		
			<line style="fill:none;stroke:#C6FF00;stroke-width:1.252;stroke-linecap:round;stroke-linejoin:round;stroke-miterlimit:10;" x1="99.102" y1="336.08" x2="72.187" y2="330.475"/>
		
			<line style="fill:none;stroke:#C6FF00;stroke-width:1.252;stroke-linecap:round;stroke-linejoin:round;stroke-miterlimit:10;" x1="100.393" y1="356.69" x2="79.553" y2="353.388"/>
		
			<line style="fill:none;stroke:#C6FF00;stroke-width:1.252;stroke-linecap:round;stroke-linejoin:round;stroke-miterlimit:10;" x1="102.153" y1="370.028" x2="116.167" y2="357.474"/>
		
			<line style="fill:none;stroke:#C6FF00;stroke-width:1.252;stroke-linecap:round;stroke-linejoin:round;stroke-miterlimit:10;" x1="101.868" y1="375.678" x2="77.924" y2="369.657"/>
		<g>
			<polygon style="fill:#C6FF00;" points="84.132,383.011 112.44,383.011 112.44,388.868 109.973,388.868 104.86,420.842 
				91.712,420.842 86.599,388.868 84.132,388.868 			"/>
			<polygon style="opacity:0.5;fill:#FFFFFF;" points="84.132,383.011 112.44,383.011 112.44,388.868 109.973,388.868 
				104.86,420.842 91.712,420.842 86.599,388.868 84.132,388.868 			"/>
		</g>
	</g>
</g>
<g id="Character_1">
	<g>
		<g>
			<path style="fill:#263238;" d="M130.745,81.12c0,0-3.67-3.67-9.174-1.835c-5.505,1.835-10.767,9.787-9.436,16.514
				c0.921,4.657,5.242,11.533,6.553,14.155c1.311,2.621-0.524,7.077-4.718,16.252c-4.194,9.174-5.767,17.824,6.291,25.426
				c12.058,7.602,25.688-4.456,32.765-13.106c7.077-8.65-5.242-28.571-6.291-36.959C145.686,93.178,143.851,76.926,130.745,81.12z"
				/>
			<g>
				<path style="fill:#C6FF00;stroke:#263238;stroke-linecap:round;stroke-linejoin:round;stroke-miterlimit:10;" d="
					M159.103,139.105c-10.395,10.298-23.115,8.332-23.115,8.332l-2.883,12.058l5.505,27.523l35.911-18.611l-8.126-20.97
					L159.103,139.105z"/>
				<path style="opacity:0.3;fill:#263238;" d="M159.103,139.105c-10.395,10.298-23.115,8.332-23.115,8.332l-2.883,12.058
					l5.505,27.523l35.911-18.611l-8.126-20.97L159.103,139.105z"/>
			</g>
			<g>
				<defs>
					<path id="XMLID_6_" d="M159.103,139.105l-0.049-0.056l-5.505-36.435l-16.252,3.408l-8.126,5.243c0,0-9.698,7.602-9.698,8.388
						s16.406,28.234,16.406,28.234S148.708,149.402,159.103,139.105z"/>
				</defs>
				<use xlink:href="#XMLID_6_"  style="overflow:visible;fill:#FFFFFF;"/>
				<clipPath id="XMLID_00000173839768983217974360000004949616017232650390_">
					<use xlink:href="#XMLID_6_"  style="overflow:visible;"/>
				</clipPath>
				<path style="opacity:0.5;clip-path:url(#XMLID_00000173839768983217974360000004949616017232650390_);fill:none;" d="
					M166.394,147.437l-7.339-8.388l-5.505-36.435l-16.252,3.408l-3.84,2.477l1.217,16.514c0,0,2.088,1.16,3.247,1.16
					c1.16,0,2.088-2.552,2.088-2.552l1.392-2.319c0,0,2.088,1.856,5.335,0.464s1.392-6.495,0.928-8.35s4.407-0.696,4.407-0.696
					s3.943,8.582,4.407,11.366s-2.088,10.438-1.856,12.061c0.232,1.624,0.232,4.639-0.696,5.567
					c-0.928,0.928-4.175,6.031-4.175,6.031s13.685,1.16,15.077,1.16c0.298,0,1.024-0.15,1.979-0.398L166.394,147.437z"/>
				
					<use xlink:href="#XMLID_6_"  style="overflow:visible;fill:none;stroke:#263238;stroke-linecap:round;stroke-linejoin:round;stroke-miterlimit:10;"/>
			</g>
			<path style="opacity:0.5;fill:#C6FF00;" d="M137.227,137.538c0,0,11.495-8.516,10.438-6.031
				c-1.057,2.486-9.046,8.814-11.133,9.046C134.443,140.785,137.227,137.538,137.227,137.538z"/>
			<polyline style="fill:#263238;" points="137.58,121.356 138.026,121.826 140.83,124.786 141.552,136.159 144.982,135.618 
				142.274,124.966 146.607,133.993 150.217,130.382 142.455,123.341 142.274,117.745 138.302,115.759 			"/>
			<path style="fill:#FFFFFF;stroke:#263238;stroke-linecap:round;stroke-linejoin:round;stroke-miterlimit:10;" d="
				M131.269,107.856c0,0-3.408,1.573-3.408,4.718c0,3.146,3.687,10.603,6.047,12.175s6.273-5.622,6.273-5.622
				s6.029,2.883,7.602,0.262c1.573-2.621-3.67-11.271-7.077-13.63C137.298,103.4,131.269,107.856,131.269,107.856z"/>
			<g>
				<defs>
					<path id="XMLID_8_" d="M128.386,104.711c0,0,1.835,4.718,2.359,7.339c0.524,2.621,7.602,7.077,8.388,7.339
						c0.786,0.262,1.311-8.388,1.311-8.388l-2.097-10.223L128.386,104.711z"/>
				</defs>
				<use xlink:href="#XMLID_8_"  style="overflow:visible;fill:#FFFFFF;"/>
				<clipPath id="XMLID_00000074413272441413833490000012608948447481524149_">
					<use xlink:href="#XMLID_8_"  style="overflow:visible;"/>
				</clipPath>
				<path style="opacity:0.5;clip-path:url(#XMLID_00000074413272441413833490000012608948447481524149_);fill:#C6FF00;" d="
					M138.57,101.87c-0.758-0.209-1.344-0.284-1.344-0.284l-7.19,2.551l-0.944,2.478c0.481,1.342,1.091,3.145,1.462,4.609
					c1.136,0.841,2.583,1.624,4.121,1.727c2.178,0.145,4.083-1.527,5.431-3.595L138.57,101.87z"/>
				
					<use xlink:href="#XMLID_8_"  style="overflow:visible;fill:none;stroke:#263238;stroke-linecap:round;stroke-linejoin:round;stroke-miterlimit:10;"/>
			</g>
			<path style="fill:#FFFFFF;stroke:#263238;stroke-linecap:round;stroke-linejoin:round;stroke-miterlimit:10;" d="
				M123.668,100.255c0,0-2.883-2.359-2.883,0s2.621,3.67,4.718,3.67"/>
			<path style="fill:#FFFFFF;stroke:#263238;stroke-linecap:round;stroke-linejoin:round;stroke-miterlimit:10;" d="M139.133,92.653
				c0,0,1.835-2.883,2.359,0.262c0.524,3.145-1.573,5.767-1.573,5.767L139.133,92.653z"/>
			<path style="opacity:0.5;fill:#C6FF00;stroke:#263238;stroke-linecap:round;stroke-linejoin:round;stroke-miterlimit:10;" d="
				M123.668,100.255c0,0-2.883-2.359-2.883,0s2.621,3.67,4.718,3.67"/>
			<path style="opacity:0.5;fill:#C6FF00;stroke:#263238;stroke-linecap:round;stroke-linejoin:round;stroke-miterlimit:10;" d="
				M139.133,92.653c0,0,1.835-2.883,2.359,0.262c0.524,3.145-1.573,5.767-1.573,5.767L139.133,92.653z"/>
			<g>
				<defs>
					<path id="XMLID_7_" d="M120.421,92.669c0,0,2.252,9.369,7.077,13.982c4.824,4.613,10.011,4.665,11.789-3.576
						c1.469-6.809-2.181-15.878-2.181-15.878S125.326,77.519,120.421,92.669z"/>
				</defs>
				<use xlink:href="#XMLID_7_"  style="overflow:visible;fill:#FFFFFF;"/>
				<clipPath id="XMLID_00000035532006743817399880000003707988470166303629_">
					<use xlink:href="#XMLID_7_"  style="overflow:visible;"/>
				</clipPath>
				<path style="opacity:0.5;clip-path:url(#XMLID_00000035532006743817399880000003707988470166303629_);fill:#C6FF00;" d="
					M128.812,84.172l1.83,4.596c0,0,2.874-0.635,4.497,2.844c1.624,3.479,3.247,8.582,2.32,12.525
					c-0.884,3.758-3.035,4.985-6.247,5.092c3.543,1.512,6.753-0.023,8.076-6.155c1.469-6.809-2.181-15.878-2.181-15.878
					S133.115,83.925,128.812,84.172z"/>
				
					<use xlink:href="#XMLID_7_"  style="overflow:visible;fill:none;stroke:#263238;stroke-linecap:round;stroke-linejoin:round;stroke-miterlimit:10;"/>
			</g>
			<path style="fill:#263238;" d="M129.365,97.622c0.275,0.526,0.224,1.097-0.114,1.274c-0.339,0.177-0.836-0.106-1.112-0.633
				c-0.275-0.527-0.224-1.097,0.114-1.274C128.591,96.812,129.089,97.095,129.365,97.622z"/>
			<path style="fill:#263238;" d="M134.58,96.019c0.199,0.56,0.068,1.118-0.292,1.245c-0.36,0.128-0.813-0.223-1.012-0.783
				c-0.199-0.56-0.068-1.118,0.292-1.245C133.928,95.109,134.381,95.459,134.58,96.019z"/>
			<path style="fill:none;stroke:#263238;stroke-width:0.5;stroke-linecap:round;stroke-linejoin:round;stroke-miterlimit:10;" d="
				M134.945,93.043c0,0-1.282-0.962-2.725,0.16c-1.443,1.122,1.282,6.732,1.282,6.732s0.048,1.761-2.219,0.947"/>
			<path style="fill:none;stroke:#263238;stroke-width:0.5;stroke-linecap:round;stroke-linejoin:round;stroke-miterlimit:10;" d="
				M134.945,102.659c0,0-1.282,2.725-4.007,0.962"/>
			<path style="fill:none;stroke:#263238;stroke-width:0.5;stroke-linecap:round;stroke-linejoin:round;stroke-miterlimit:10;" d="
				M128.854,94.485c0,0-2.564-2.404-3.686,2.244"/>
			<path style="fill:#263238;" d="M137.256,84.254c-2.807-2.447-5.076-2.416-6.064-2.089c-0.666-0.482-1.648-0.856-3.068-1.045
				c-7.864-1.049-8.912,4.98-8.912,10.747c0,5.767-4.98,12.582-1.573,13.368c3.408,0.786,4.718-2.359,4.718-2.359
				s3.67-6.029,3.67-10.223c0-4.194,4.575-3.834,4.575-3.834s0.016-0.02,0.04-0.051c0.248-0.311,1.765-2.039,3.674-0.413
				c2.089,1.78,2.321,3.869,4.023,4.41c1.702,0.542,4.487-2.166,4.487-2.166S140.273,86.885,137.256,84.254z"/>
			<path style="fill:none;stroke:#FFFFFF;stroke-width:0.5;stroke-linecap:round;stroke-linejoin:round;stroke-miterlimit:10;" d="
				M130.825,85.816c0,0-3.17-2.536-6.023,0.317c-2.853,2.853-2.536,8.241-3.487,11.728c-0.951,3.487-3.487,4.121-3.487,4.121"/>
			<path style="fill:none;stroke:#FFFFFF;stroke-width:0.5;stroke-linecap:round;stroke-linejoin:round;stroke-miterlimit:10;" d="
				M128.606,84.865c0,0-3.409-3.378-7.692,0.904c-3.275,3.275-1.818,5.435-2.452,10.824"/>
			<path style="fill:none;stroke:#FFFFFF;stroke-width:0.5;stroke-linecap:round;stroke-linejoin:round;stroke-miterlimit:10;" d="
				M132.41,84.231c0,0,6.023-2.853,8.558,4.438"/>
			<g>
				<defs>
					<path id="XMLID_3_" d="M119.474,119.652l-9.076,36.501l26.638,7.536l1.311-4.718l-17.464-8.06l5.931-21.036
						c0,0-0.786-3.932-4.98-8.388"/>
				</defs>
				<use xlink:href="#XMLID_3_"  style="overflow:visible;fill:#FFFFFF;"/>
				<clipPath id="XMLID_00000006709616188495241080000004486941146390081426_">
					<use xlink:href="#XMLID_3_"  style="overflow:visible;"/>
				</clipPath>
				<path style="opacity:0.5;clip-path:url(#XMLID_00000006709616188495241080000004486941146390081426_);fill:#C6FF00;" d="
					M138.347,158.97l-17.464-8.06l5.931-21.036c0,0-0.42-2.065-2.238-4.893l-0.569-0.433c0,0,0,2.088,0,5.799
					c0,3.711-4.639,15.54-6.263,18.324c-1.624,2.783-4.175,6.263-4.175,6.263l5.103-2.32l19.274,7.802L138.347,158.97z"/>
				
					<use xlink:href="#XMLID_3_"  style="overflow:visible;fill:none;stroke:#263238;stroke-linecap:round;stroke-linejoin:round;stroke-miterlimit:10;"/>
			</g>
			<g>
				<defs>
					<polygon id="XMLID_5_" points="194.264,130.609 174.124,126.376 153.55,102.614 156.595,121.735 169.207,133.75 
						194.571,134.911 					"/>
				</defs>
				<use xlink:href="#XMLID_5_"  style="overflow:visible;fill:#FFFFFF;"/>
				<clipPath id="XMLID_00000121241230507601673020000004942274851786624937_">
					<use xlink:href="#XMLID_5_"  style="overflow:visible;"/>
				</clipPath>
				<path style="opacity:0.5;clip-path:url(#XMLID_00000121241230507601673020000004942274851786624937_);fill:#C6FF00;" d="
					M153.55,102.614l2.43,15.257l1.564,4.768l0.192,0.183c0.589-0.617,3.928-4.072,4.773-4.072c0.928,0,10.438,8.35,9.046,9.046
					c-1.392,0.696-1.392,0.696-1.392,0.696l23.891,3.943l0.167-1.835l-20.097-4.225L153.55,102.614z"/>
				
					<use xlink:href="#XMLID_5_"  style="overflow:visible;fill:none;stroke:#263238;stroke-linecap:round;stroke-linejoin:round;stroke-miterlimit:10;"/>
			</g>
		</g>
		<g>
			<path style="fill:#263238;stroke:#263238;stroke-miterlimit:10;" d="M382.273,333.017L125.8,295.419
				c-1.698-0.249-2.873-1.827-2.624-3.525l21.361-145.71c0.249-1.698,1.827-2.872,3.525-2.624l4.855,0.712
				c1.259,0.185,2.503-0.417,3.14-1.518l6.454-11.156c0.199-0.344,0.452-0.662,0.775-0.896c1.505-1.09,3.382-1.557,5.236-1.285
				l64.649,9.477c1.453,0.213,2.801,0.867,3.864,1.867c0.295,0.277,0.507,0.632,0.659,1.008l5.751,14.221
				c0.414,1.023,1.338,1.749,2.43,1.909l158.659,23.259c1.698,0.249,2.872,1.827,2.624,3.525l-21.361,145.71
				C385.549,332.091,383.971,333.266,382.273,333.017z"/>
			<g>
				<defs>
					<path id="XMLID_4_" d="M384.981,332.288H130.794c-3.104,0-5.62-2.516-5.62-5.621v-142.24c0-3.104,2.516-5.621,5.62-5.621h0.689
						c2.301,0,4.37-1.403,5.222-3.541l3.872-9.724c0.444-1.116,1.219-2.087,2.253-2.699c1.092-0.646,2.348-0.997,3.644-0.997h65.34
						c0.883,0,1.751,0.163,2.563,0.475c1.148,0.44,2.087,1.3,2.708,2.361l6.646,11.346c1.009,1.722,2.854,2.78,4.85,2.78h156.401
						c3.104,0,5.62,2.516,5.62,5.621v142.24C390.601,329.771,388.085,332.288,384.981,332.288z"/>
				</defs>
				<use xlink:href="#XMLID_4_"  style="overflow:visible;fill:#C6FF00;"/>
				<clipPath id="XMLID_00000139253432446711754870000010272232952616500353_">
					<use xlink:href="#XMLID_4_"  style="overflow:visible;"/>
				</clipPath>
				<path style="opacity:0.1;clip-path:url(#XMLID_00000139253432446711754870000010272232952616500353_);fill:#263238;" d="
					M384.981,332.288H130.794c-3.104,0-5.62-2.516-5.62-5.621v-142.24c0-3.104,2.516-5.621,5.62-5.621h0.689
					c2.301,0,4.37-1.403,5.222-3.541l3.872-9.724c0.444-1.116,1.219-2.087,2.253-2.699c1.092-0.646,2.348-0.997,3.644-0.997h65.34
					c0.883,0,1.751,0.163,2.563,0.475c1.148,0.44,2.087,1.3,2.708,2.361l6.646,11.346c1.009,1.722,2.854,2.78,4.85,2.78h156.401
					c3.104,0,5.62,2.516,5.62,5.621v142.24C390.601,329.771,388.085,332.288,384.981,332.288z"/>
				<use xlink:href="#XMLID_4_"  style="overflow:visible;fill:none;stroke:#263238;stroke-miterlimit:10;"/>
			</g>
			<path style="fill:#FFFFFF;" d="M196.992,178.333h-40.667c-2.025,0-3.667-1.642-3.667-3.667l0,0c0-2.025,1.642-3.667,3.667-3.667
				h40.667c2.025,0,3.667,1.642,3.667,3.667l0,0C200.658,176.692,199.017,178.333,196.992,178.333z"/>
			<path style="fill:#263238;stroke:#263238;stroke-miterlimit:10;" d="M384.981,357.112H130.794c-3.104,0-5.62-2.516-5.62-5.621
				v-142.24c0-3.104,2.516-5.62,5.62-5.62h0.689c2.301,0,4.37-1.403,5.222-3.541l3.872-9.724c0.444-1.116,1.219-2.087,2.253-2.699
				c1.092-0.646,2.348-0.997,3.644-0.997h65.34c0.883,0,1.751,0.163,2.563,0.475c1.148,0.44,2.087,1.3,2.708,2.361l6.646,11.346
				c1.009,1.722,2.854,2.78,4.85,2.78h156.401c3.104,0,5.62,2.516,5.62,5.62v142.24
				C390.601,354.596,388.085,357.112,384.981,357.112z"/>
			<g>
				<path style="fill:#C6FF00;" d="M216.489,149.033l-40.357-5.01c-2.01-0.249-3.437-2.081-3.187-4.09l0,0
					c0.249-2.01,2.081-3.436,4.09-3.187l40.357,5.01c2.01,0.249,3.436,2.081,3.187,4.09l0,0
					C220.33,147.856,218.498,149.283,216.489,149.033z"/>
				<path style="opacity:0.5;fill:#FFFFFF;" d="M216.489,149.033l-40.357-5.01c-2.01-0.249-3.437-2.081-3.187-4.09l0,0
					c0.249-2.01,2.081-3.436,4.09-3.187l40.357,5.01c2.01,0.249,3.436,2.081,3.187,4.09l0,0
					C220.33,147.856,218.498,149.283,216.489,149.033z"/>
			</g>
			<g>
				<path style="fill:#C6FF00;" d="M196.992,203.158h-40.667c-2.025,0-3.667-1.642-3.667-3.667l0,0c0-2.025,1.642-3.667,3.667-3.667
					h40.667c2.025,0,3.667,1.642,3.667,3.667l0,0C200.658,201.516,199.017,203.158,196.992,203.158z"/>
				<path style="opacity:0.5;fill:#FFFFFF;" d="M196.992,203.158h-40.667c-2.025,0-3.667-1.642-3.667-3.667l0,0
					c0-2.025,1.642-3.667,3.667-3.667h40.667c2.025,0,3.667,1.642,3.667,3.667l0,0C200.658,201.516,199.017,203.158,196.992,203.158
					z"/>
			</g>
			<g>
				<defs>
					<path id="XMLID_11_" d="M393.304,420.842H122.471c-2.913,0-5.274-2.361-5.274-5.274V251.687c0-2.913,2.361-5.274,5.274-5.274
						h270.833c2.913,0,5.274,2.361,5.274,5.274v163.881C398.578,418.48,396.217,420.842,393.304,420.842z"/>
				</defs>
				<use xlink:href="#XMLID_11_"  style="overflow:visible;fill:#FFFFFF;"/>
				<clipPath id="XMLID_00000030464104721589849430000015091022715111005574_">
					<use xlink:href="#XMLID_11_"  style="overflow:visible;"/>
				</clipPath>
				<g style="clip-path:url(#XMLID_00000030464104721589849430000015091022715111005574_);">
					<path style="fill:#C6FF00;" d="M398.578,293.358c-22.487,21.059-57.933,49.343-105.096,71.899
						c-56.855,27.192-121.832,45.933-159.688,55.584h259.51c2.913,0,5.274-2.361,5.274-5.274V293.358z"/>
					<path style="opacity:0.2;fill:#FFFFFF;" d="M398.578,293.358c-22.487,21.059-57.933,49.343-105.096,71.899
						c-56.855,27.192-121.832,45.933-159.688,55.584h259.51c2.913,0,5.274-2.361,5.274-5.274V293.358z"/>
				</g>
				<use xlink:href="#XMLID_11_"  style="overflow:visible;fill:none;stroke:#263238;stroke-miterlimit:10;"/>
			</g>
			<path style="fill:none;stroke:#263238;stroke-miterlimit:10;" d="M121.274,261.734v-6.952c0-2.913,2.361-5.274,5.274-5.274
				h11.398"/>
			<line style="fill:none;stroke:#263238;stroke-miterlimit:10;" x1="121.274" y1="368.035" x2="121.274" y2="270.256"/>
			<path style="fill:none;stroke:#263238;stroke-miterlimit:10;" d="M394.501,401.397v11.075c0,2.913-2.361,5.274-5.274,5.274
				h-9.253"/>
			<line style="fill:none;stroke:#263238;stroke-miterlimit:10;" x1="394.501" y1="259.265" x2="394.501" y2="393.171"/>
			<path style="fill:#263238;stroke:#263238;stroke-miterlimit:10;" d="M299.724,358.342h-83.673c-1.506,0-2.727-1.221-2.727-2.727
				v-42.695c0-1.506,1.221-2.727,2.727-2.727h83.673c1.506,0,2.727,1.221,2.727,2.727v42.695
				C302.451,357.122,301.23,358.342,299.724,358.342z"/>
			<path style="fill:#FFFFFF;stroke:#263238;stroke-miterlimit:10;" d="M299.724,324.837h-83.673c-1.506,0-2.727-1.221-2.727-2.727
				v-9.189c0-1.506,1.221-2.727,2.727-2.727h83.673c1.506,0,2.727,1.221,2.727,2.727v9.189
				C302.451,323.616,301.23,324.837,299.724,324.837z"/>
		</g>
		<path style="fill:#FFFFFF;stroke:#263238;stroke-miterlimit:10;" d="M137.036,163.689l1.835,3.408l3.887,2.807
			c0.503,0.363,1.175,0.386,1.701,0.057l0.346-0.216c0.507-0.317,0.705-0.956,0.467-1.504l-2.207-5.075l1.48,1.151
			c0.49,0.381,1.194,0.305,1.591-0.172l0,0c0.348-0.418,0.356-1.023,0.019-1.451l-3.468-4.393l-4.341,0.67L137.036,163.689z"/>
		
			<line style="fill:none;stroke:#263238;stroke-width:0.5;stroke-linecap:round;stroke-linejoin:round;stroke-miterlimit:10;" x1="144.805" y1="169.744" x2="141.319" y2="165.171"/>
		
			<line style="fill:none;stroke:#263238;stroke-width:0.5;stroke-linecap:round;stroke-linejoin:round;stroke-miterlimit:10;" x1="142.758" y1="169.903" x2="140.03" y2="166.276"/>
		<path style="fill:#FFFFFF;stroke:#263238;stroke-miterlimit:10;" d="M194.264,130.609l5.432,0.32l6.626,4.233
			c0,0,0.368,1.288-0.552,1.472c-0.92,0.184-5.89-1.656-5.89-1.656l-5.309-0.067L194.264,130.609z"/>
		<path style="fill:#FFFFFF;stroke:#263238;stroke-linejoin:round;stroke-miterlimit:10;" d="M194.543,134.242l5.706,2.577
			c0,0,0.92-1.288-0.368-1.84l-1.841-1.288"/>
	</g>
</g>
<g id="Character_2">
	<g>
		<g>
			<g>
				<path style="fill:#FFFFFF;" d="M396.269,231.764l-2.354-7.063l-2.653-3.631c-0.208-0.285-0.66-0.138-0.66,0.215v7.904v2.557
					l2.005,2.634L396.269,231.764z"/>
			</g>
			<g>
				<path style="fill:#FFFFFF;stroke:#263238;stroke-miterlimit:10;" d="M434.725,262.634l-19.791,0.698
					c-1.493,0.053-2.881-0.763-3.562-2.092l-15.103-29.476c0,0-3.401,1.831-3.663,2.616c-0.222,0.665,11.188,29.469,14.689,38.278
					c0.604,1.521,2.102,2.487,3.737,2.418l22.124-0.932"/>
				
					<line style="fill:#FFFFFF;stroke:#263238;stroke-width:0.75;stroke-miterlimit:10;" x1="397.72" y1="235.43" x2="394.622" y2="236.714"/>
			</g>
		</g>
		<g style="opacity:0.5;">
			<g>
				<path style="fill:#C6FF00;stroke:#263238;stroke-miterlimit:10;" d="M434.725,262.634l-19.791,0.698
					c-1.493,0.053-2.881-0.763-3.562-2.092l-15.103-29.476c0,0-3.401,1.831-3.663,2.616c-0.222,0.665,11.188,29.469,14.689,38.278
					c0.604,1.521,2.102,2.487,3.737,2.418l22.124-0.932"/>
				
					<line style="fill:#C6FF00;stroke:#263238;stroke-width:0.75;stroke-miterlimit:10;" x1="397.72" y1="235.43" x2="394.622" y2="236.714"/>
			</g>
		</g>
		<g>
			<defs>
				<path id="XMLID_12_" d="M396.269,231.764l-2.354-7.063l-2.653-3.631c-0.208-0.285-0.66-0.138-0.66,0.215v10.461l2.005,2.634
					L396.269,231.764z"/>
			</defs>
			<use xlink:href="#XMLID_12_"  style="overflow:visible;fill:#C6FF00;"/>
			<clipPath id="XMLID_00000059275459926077934870000012743619692914419841_">
				<use xlink:href="#XMLID_12_"  style="overflow:visible;"/>
			</clipPath>
			<path style="opacity:0.5;clip-path:url(#XMLID_00000059275459926077934870000012743619692914419841_);fill:#FFFFFF;" d="
				M396.269,231.764l-2.354-7.063l-2.653-3.631c-0.208-0.285-0.66-0.138-0.66,0.215v10.461l2.005,2.634L396.269,231.764z"/>
			<use xlink:href="#XMLID_12_"  style="overflow:visible;fill:none;stroke:#263238;stroke-miterlimit:10;"/>
		</g>
		<g>
			<defs>
				<path id="XMLID_9_" d="M440.861,243.992c0,0-1.739,2.17-2.029,4.087c-0.289,1.918,0.167,9.31,0.167,9.31l-10.298,1.165
					c0,0,0.783-7.514,0.815-8.765c0.032-1.25,1.909-5.652,5.466-7.391C438.54,240.661,441.55,241.507,440.861,243.992z"/>
			</defs>
			<use xlink:href="#XMLID_9_"  style="overflow:visible;fill:#FFFFFF;"/>
			<clipPath id="XMLID_00000124155799618079041970000005358991823821588870_">
				<use xlink:href="#XMLID_9_"  style="overflow:visible;"/>
			</clipPath>
			<path style="opacity:0.5;clip-path:url(#XMLID_00000124155799618079041970000005358991823821588870_);fill:#C6FF00;" d="
				M440.795,244.078c-1.879-0.505-4.142-1.074-6.068-1.538c-3.388,1.82-5.179,6.03-5.21,7.25c-0.012,0.479-0.135,1.878-0.281,3.421
				c1.02-0.231,2.598-0.579,3.776-0.793c1.886-0.343,2.744-0.686,2.744-0.686l-0.343,6.003c0,0,0.081,0.013,0.223,0.036l3.364-0.381
				c0,0-0.456-7.392-0.167-9.31C439.09,246.375,440.486,244.48,440.795,244.078z"/>
			<use xlink:href="#XMLID_9_"  style="overflow:visible;fill:none;stroke:#263238;stroke-width:1.004;stroke-miterlimit:10;"/>
		</g>
		<g>
			<defs>
				<path id="XMLID_10_" d="M443.038,245.267c8.543-11.275-12.049-22.962-17.457-11.783c-0.939,1.941-1.538,3.222-1.781,4.357
					c-0.819,0.504-2.969,1.837-3.399,2.208c-0.398,0.343,1.02,1.318,1.77,1.795c-1.474,3.603-1.251,7.411-0.83,8.264
					c0.731,1.48,4.331,1.499,6.696,1.067c2.365-0.431,3.318-2.715,3.971-3.332c0.653-0.617,4.134,0.168,5.344,0.528
					C438.561,248.731,441.343,247.504,443.038,245.267z"/>
			</defs>
			<use xlink:href="#XMLID_10_"  style="overflow:visible;fill:#FFFFFF;"/>
			<clipPath id="XMLID_00000008827873486260461300000005325353870005421196_">
				<use xlink:href="#XMLID_10_"  style="overflow:visible;"/>
			</clipPath>
			<path style="opacity:0.5;clip-path:url(#XMLID_00000008827873486260461300000005325353870005421196_);fill:#C6FF00;" d="
				M434.555,244.186c0,0,0.172,0.857-1.543,1.543c-1.715,0.686-2.058,0.172-2.573,1.372s-1.029,2.572-3.43,3.087
				c-1.638,0.351-3.752,0.542-4.932,0.628c1.366,0.759,4.06,0.704,5.96,0.358c2.365-0.431,3.318-2.715,3.971-3.332
				c0.653-0.617,4.134,0.168,5.344,0.528c0.232,0.069,0.533,0.063,0.862,0.019c0.681-1.288,0.801-3.175,0.801-3.175L434.555,244.186
				z"/>
			<use xlink:href="#XMLID_10_"  style="overflow:visible;fill:none;stroke:#263238;stroke-miterlimit:10;"/>
		</g>
		<path style="fill:#263238;" d="M426.321,238.828c-0.219,0.482-0.592,0.783-0.833,0.674c-0.241-0.11-0.258-0.589-0.039-1.071
			c0.219-0.482,0.592-0.784,0.833-0.674C426.523,237.866,426.541,238.346,426.321,238.828z"/>
		<path style="fill:none;stroke:#263238;stroke-width:0.5;stroke-linecap:round;stroke-linejoin:round;stroke-miterlimit:10;" d="
			M426.125,235.754c0,0,0.958-0.839,1.198,1.078"/>
		<path style="fill:none;stroke:#263238;stroke-width:0.5;stroke-linecap:round;stroke-linejoin:round;stroke-miterlimit:10;" d="
			M421.932,243.781c0,0,0,0.958,1.797,0.958"/>
		<g>
			<path style="fill:#C6FF00;stroke:#263238;stroke-miterlimit:10;" d="M419.491,309.219l-0.79,9.744c0,0-5.475,38.932-5.211,43.409
				c0.263,4.477,0.853,50.646,0.853,50.646l6.584,1.053l7.399-51.22l10.391-52.052L419.491,309.219z"/>
			<path style="opacity:0.2;fill:#263238;" d="M419.491,309.219l-0.79,9.744c0,0-5.475,38.932-5.211,43.409
				c0.263,4.477,0.853,50.646,0.853,50.646l6.584,1.053l7.399-51.22l10.391-52.052L419.491,309.219z"/>
		</g>
		<path style="fill:none;stroke:#263238;stroke-width:0.75;stroke-miterlimit:10;" d="M427.833,344.787
			c0,0-2.536,14.898-4.438,22.188c-1.902,7.29-1.902,14.581-1.902,22.505c0,7.924-2.853,22.505-2.853,22.505"/>
		<g>
			<g>
				<path style="fill:#C6FF00;stroke:#263238;stroke-miterlimit:10;" d="M432.857,306.815c4.345-2.271,9.02-3.786,10.337-0.757
					c2.634,6.057-0.527,15.275-0.527,15.275l2.409,42.475l4.412,51.248l-6.584-1.053c0,0-10.126-43.254-11.706-45.888
					c-1.58-2.634-4.068-39.671-4.068-39.671l-5.025-4.557"/>
			</g>
			<g style="opacity:0.2;">
				<path style="fill:#263238;" d="M432.857,306.815c4.345-2.271,9.02-3.786,10.337-0.757c2.634,6.057-0.527,15.275-0.527,15.275
					l2.409,42.475l4.412,51.248l-6.584-1.053c0,0-10.126-43.254-11.706-45.888c-1.58-2.634-4.068-39.671-4.068-39.671l-5.025-4.557"
					/>
			</g>
		</g>
		<path style="fill:none;stroke:#263238;stroke-width:0.75;stroke-miterlimit:10;" d="M437.947,339.012
			c0.156,9.849,1.15,14.585,1.93,17.186c0.951,3.17,0.634,9.192,0.634,12.045c0,2.853-1.268-0.634,1.585,12.362
			c2.853,12.996,4.755,31.064,4.755,31.064"/>
		<path style="fill:none;stroke:#263238;stroke-width:0.75;stroke-miterlimit:10;" d="M437.976,317.527c0,0,0.317-0.634,0,14.264
			c-0.017,0.799-0.029,1.573-0.038,2.323"/>
		
			<polyline style="fill:none;stroke:#263238;stroke-width:0.75;stroke-linecap:round;stroke-linejoin:round;stroke-miterlimit:10;" points="
			423.367,314.703 423.157,319.163 422.125,322.257 423.672,324.061 		"/>
		<path style="fill:none;stroke:#263238;stroke-width:0.75;stroke-linecap:round;stroke-linejoin:round;stroke-miterlimit:10;" d="
			M421.352,317.359c0,0,2.578,2.578,9.28,1.805"/>
		<path style="fill:#263238;" d="M437.178,315.134c5.017-0.979,5.324-2.388,7.052-3.548c-0.028-1.91-0.303-3.841-1.036-5.528
			c-1.317-3.029-5.991-1.514-10.337,0.757l-2.097,3.329l-11.268-0.926l-0.359,4.423
			C421.609,314.726,429.876,316.559,437.178,315.134z"/>
		<polygon style="fill:#FFFFFF;stroke:#263238;stroke-width:0.75;stroke-miterlimit:10;" points="420.616,312.282 420.506,314.043 
			423.367,314.703 423.587,312.392 		"/>
		<g>
			<g>
				<polyline style="fill:#C6FF00;stroke:#263238;stroke-miterlimit:10;" points="440.582,314.891 440.096,310.515 441.554,310.029 
					442.284,313.919 				"/>
				<polyline style="fill:#C6FF00;stroke:#263238;stroke-miterlimit:10;" points="429.398,316.35 428.425,311.244 430.857,311.244 
					431.829,315.621 				"/>
			</g>
			<g style="opacity:0.2;">
				<polyline style="fill:#263238;" points="440.582,314.891 440.096,310.515 441.554,310.029 442.284,313.919 				"/>
				<polyline style="fill:#263238;" points="429.398,316.35 428.425,311.244 430.857,311.244 431.829,315.621 				"/>
			</g>
		</g>
		<path style="fill:#263238;stroke:#263238;stroke-miterlimit:10;" d="M418.203,270.463c0,0-0.831,5.542-3.325,14.964
			c-2.494,9.422-4.988,20.783-4.988,20.783l1.385,5.819l4.157-6.096L418.203,270.463z"/>
		<path style="fill:#263238;stroke:#263238;stroke-miterlimit:10;" d="M425.131,262.427c0,0-5.819,1.386-6.374,4.157
			c-0.554,2.771-0.554,3.88-0.554,3.88l8.867-7.205l11.084-4.434L425.131,262.427z"/>
		<g>
			<defs>
				<path id="XMLID_1_" d="M426.716,260.289c0,0-4.721,5.351-6.61,7.554c-1.889,2.203-1.889,25.81-1.889,29.273
					c0,3.462-1.881,12.893,1.267,14.782c3.148,1.889,22.348,1.259,24.237-1.889c1.889-3.148,3.14-40.907,2.825-44.369
					c-0.315-3.462-3.156-6.229-5.351-7.24C439,257.389,426.716,260.289,426.716,260.289z"/>
			</defs>
			<use xlink:href="#XMLID_1_"  style="overflow:visible;fill:#FFFFFF;"/>
			<clipPath id="XMLID_00000003101170955092711210000014004036123146153124_">
				<use xlink:href="#XMLID_1_"  style="overflow:visible;"/>
			</clipPath>
			<path style="opacity:0.5;clip-path:url(#XMLID_00000003101170955092711210000014004036123146153124_);fill:#C6FF00;" d="
				M441.194,258.4c-0.197-0.091-0.479-0.149-0.823-0.182l-1.358,0.717c0,0,3.773,2.915,4.459,7.374
				c0.686,4.459,0.515,8.061-0.172,12.691c-0.686,4.631-11.662,0-9.604,1.715c2.058,1.715,9.776,4.63,10.118,6.174
				c0.343,1.544-3.773,4.116-5.316,4.287c-1.543,0.172,1.029,3.602,2.573,6.517c1.544,2.916,1.029,7.032-2.573,9.776
				c-3.602,2.744-11.855,4.147-15.435,4.287c-1.164,0.046-1.889,0.299-2.1,0.648c5.494,1.221,21.065,0.423,22.757-2.396
				c1.889-3.148,3.14-40.907,2.825-44.369C446.231,262.177,443.389,259.411,441.194,258.4z"/>
			<use xlink:href="#XMLID_1_"  style="overflow:visible;fill:none;stroke:#263238;stroke-miterlimit:10;"/>
		</g>
		
			<path style="fill:#FFFFFF;stroke:#263238;stroke-width:0.75;stroke-linecap:round;stroke-linejoin:round;stroke-miterlimit:10;" d="
			M436.391,284.244c-5.072-1.585-9.509-6.023-9.509-6.023s1.268,7.924,8.558,12.996"/>
		<polygon style="fill:#FFFFFF;stroke:#263238;stroke-miterlimit:10;" points="440.25,254.938 425.142,258.4 424.197,262.807 
			441.194,258.4 		"/>
		<polygon style="fill:#263238;stroke:#263238;stroke-miterlimit:10;" points="421.813,420.715 420.927,414.071 414.343,413.018 
			408.849,416.925 403.925,419.633 403.925,420.715 		"/>
		<polygon style="fill:#263238;stroke:#263238;stroke-miterlimit:10;" points="450.31,421.229 449.487,415.056 442.903,414.002 
			437.409,417.91 432.485,420.618 432.485,421.229 		"/>
		<path style="fill:#FFFFFF;stroke:#263238;stroke-linecap:round;stroke-linejoin:round;stroke-miterlimit:10;" d="M393.391,226.003
			l-4.06-2.351c0,0-1.579-0.196-0.902,1.568l4.06,3.135"/>
		<path style="fill:#FFFFFF;stroke:#263238;stroke-linecap:round;stroke-linejoin:round;stroke-miterlimit:10;" d="M392.793,232.114
			c-0.192-0.484-0.474-0.928-0.829-1.309l-0.76-0.815l0.017-0.032l-4.127-5.123c0,0-1.281-0.854-0.996,0.996l2.562,4.981
			l-4.554-4.27c0,0-0.854-0.712-0.854,0.285c0,0.996,4.127,5.408,4.127,5.408l-4.554-2.135c0,0-0.996,0.712-0.285,1.423
			c0.712,0.712,4.554,2.135,4.554,2.135l-3.416-0.142c0,0-0.996,0.854-0.285,1.139c0.711,0.285,4.696,1.139,4.696,1.139
			c0.285,0.427,1.708,0.996,1.708,0.996l0.996,1.85l3.828-1.926L392.793,232.114z"/>
		<g>
			<defs>
				<path id="XMLID_2_" d="M433.679,276.499l-22.819,5.356c-2.408,0.419-4.778-0.918-5.665-3.195l-14.401-40.019l3.828-1.926
					l15.909,29.47c0.746,1.381,2.304,2.115,3.843,1.811l17.445-4.935"/>
			</defs>
			<use xlink:href="#XMLID_2_"  style="overflow:visible;fill:#FFFFFF;"/>
			<clipPath id="XMLID_00000155123669936823384410000011308438487751781563_">
				<use xlink:href="#XMLID_2_"  style="overflow:visible;"/>
			</clipPath>
			<use xlink:href="#XMLID_2_"  style="overflow:visible;fill:none;stroke:#263238;stroke-miterlimit:10;"/>
		</g>
		
			<line style="fill:none;stroke:#263238;stroke-width:0.75;stroke-miterlimit:10;" x1="396.769" y1="240.501" x2="392.331" y2="242.72"/>
		<path style="fill:#263238;stroke:#263238;stroke-miterlimit:10;" d="M430.835,233.598c0,0-2.427,2.427-1.213,4.247
			c1.213,1.82,1.618,3.438,1.618,3.438s-1.011,2.427-0.202,2.427c0.809,0,0.405-1.82,1.82-1.416s2.832,2.832,1.618,3.641
			c-0.671,0.447-1.898,0.894-2.861,1.205c-0.561,0.181-0.641,0.936-0.136,1.241c1.165,0.703,2.938,1.599,4.412,1.599
			c2.427,0,3.843-0.405,3.843-0.405s4.045-5.461,6.877-6.877c2.832-1.416,1.618-7.888,1.618-8.697c0-0.809-2.832-2.629-2.832-2.629
			s0.809-1.82-2.832-5.865c-3.641-4.045-10.517-4.854-10.72-3.438c-0.202,1.416,0.809,2.023,0.809,2.023s-6.068-2.629-8.899,0.202
			C420.925,227.126,430.835,233.598,430.835,233.598z"/>
		<path style="fill:none;stroke:#FFFFFF;stroke-width:0.5;stroke-linecap:round;stroke-linejoin:round;stroke-miterlimit:10;" d="
			M430.835,233.598c0,0,4.922,5.952,12.212,6.586"/>
		<path style="fill:none;stroke:#FFFFFF;stroke-width:0.5;stroke-linecap:round;stroke-linejoin:round;stroke-miterlimit:10;" d="
			M429.1,235.43c0,0,2.285,6.664,11.761,8.562"/>
	</g>
</g>
</svg>
